<?xml version="1.0" encoding="UTF-8"?>
<svg id="Layer_1" xmlns="http://www.w3.org/2000/svg" xmlns:xlink="http://www.w3.org/1999/xlink" version="1.1" viewBox="0 0 2000 602">
  <!-- Generator: Adobe Illustrator 30.1.0, SVG Export Plug-In . SVG Version: 2.1.1 Build 136)  -->
  <defs>
    <style>
      .st0 {
        fill: url(#linear-gradient1);
      }

      .st1, .st2, .st3 {
        fill: #e1bf7d;
      }

      .st4 {
        fill: url(#linear-gradient);
      }

      .st2 {
        font-family: Poppins-BoldItalic, Poppins;
        font-style: italic;
        font-weight: 700;
      }

      .st2, .st3 {
        font-size: 41.02px;
        isolation: isolate;
      }

      .st3 {
        font-family: Poppins-Medium, Poppins;
        font-weight: 500;
      }
    </style>
    <linearGradient id="linear-gradient" x1="479.82" y1="271.95" x2="1835" y2="271.95" gradientUnits="userSpaceOnUse">
      <stop offset="0" stop-color="#e1bf7d"/>
      <stop offset="1" stop-color="#b17e35"/>
    </linearGradient>
    <linearGradient id="linear-gradient1" x1="740.07" y1="677.47" x2="1143.34" y2="677.47" gradientTransform="translate(0 -1080)" gradientUnits="userSpaceOnUse">
      <stop offset="0" stop-color="#e1bf7d"/>
      <stop offset=".6" stop-color="#b17e35"/>
      <stop offset="1" stop-color="#e1bf7d"/>
    </linearGradient>
  </defs>
  <path class="st4" d="M1768.87,185.6s0,0,0,0c0,0,0,0,0,0h0ZM1695.09,262.06l-5.39,9.7,11.2,6.57,4.52-8.08,10.99,6.46,5.38-9.7-11.19-6.57-4.52,8.08-10.99-6.46ZM1156.8,218.3c1.32-.15,2.43-.89,3.31-2.21.44-.73.81-2.06,1.1-3.97.29-2.06.22-3.09-.22-3.09h-.02c-.44.01-.73.37-.88,1.11-.59,2.06-1.62,3.09-3.09,3.09-.58,0-1.1-.29-1.54-.88-.73-.88-1.1-2.64-1.1-5.29,0-3.68.96-9.2,2.87-16.55.44-1.33.66-2.21.66-2.65,0-1.18-.51-.96-1.54.66-.44.59-.81,1.4-1.1,2.43-1.91,7.79-3.02,13.01-3.31,15.66-.29,4.56.45,8.09,2.21,10.59.59.88,1.47,1.25,2.65,1.1ZM1213.79,242.56c.59.88,1.47,1.25,2.65,1.1,1.32-.15,2.43-.89,3.31-2.21.44-.73.81-2.06,1.1-3.97.29-2.06.22-3.09-.22-3.09h-.02c-.44,0-.73.37-.88,1.11-.59,2.06-1.62,3.09-3.09,3.09-.58,0-1.1-.29-1.54-.88-.73-.88-1.1-2.64-1.1-5.29,0-3.68.96-9.2,2.87-16.55.44-1.33.66-2.21.66-2.65,0-1.18-.51-.96-1.54.66-.44.59-.81,1.4-1.1,2.43-1.91,7.79-3.02,13.01-3.31,15.66-.29,4.56.45,8.09,2.21,10.59ZM1804.44,268c1.32-.15,2.43-.89,3.31-2.21.44-.73.81-2.06,1.1-3.97.29-2.06.22-3.09-.22-3.09h-.02c-.44.01-.73.37-.88,1.11-.59,2.06-1.62,3.09-3.09,3.09-.58,0-1.1-.29-1.54-.88-.73-.88-1.1-2.64-1.1-5.29,0-3.68.96-9.2,2.87-16.55.44-1.33.66-2.21.66-2.65,0-1.18-.51-.96-1.54.66-.44.59-.81,1.4-1.1,2.43-1.91,7.79-3.02,13.01-3.31,15.66-.29,4.56.45,8.09,2.21,10.59.59.88,1.47,1.25,2.65,1.1ZM1072.55,260.83c0-1.18-.51-.96-1.54.66-.44.59-.81,1.4-1.1,2.43-1.91,7.79-3.02,13.01-3.31,15.66-.29,4.56.45,8.09,2.21,10.59.59.88,1.47,1.25,2.65,1.1,1.32-.15,2.43-.89,3.31-2.21.44-.73.81-2.06,1.1-3.97.29-2.06.22-3.09-.22-3.09h-.02c-.44,0-.73.37-.88,1.11-.59,2.06-1.62,3.09-3.09,3.09-.58,0-1.1-.29-1.54-.88-.73-.88-1.1-2.64-1.1-5.29,0-3.68.96-9.2,2.87-16.55.44-1.33.66-2.21.66-2.65ZM1078.08,188.29c1.99,1.1,3.2,1.58,3.64,1.43.29-.29.51-.59.66-.88,2.8,2.36,4.78,5.67,5.96,9.93,1.03,3.38,1.99,5.07,2.87,5.07.74.15,1.55-3.64,2.43-11.36.88-7.72,2.35-11.58,4.41-11.58,1.03,0,1.99.58,2.87,1.76.88,1.17,1.32,1.76,1.32,1.76.58,0,1.03-.89,1.32-2.65.44-1.77.44-2.87,0-3.31h.01c-1.77-2.2-3.61-3.3-5.52-3.3-2.51-.14-4.34,3.16-5.52,9.93-.73,3.68-1.32,7.35-1.76,11.03-1.03-2.06-1.84-3.9-2.43-5.52-3.97-7.65-7.72-11.4-11.25-11.25-1.92,0-2.65,1.99-2.21,5.96.15.88,1.21,1.88,3.2,2.98ZM1118.01,217.67c1.99,1.1,3.2,1.58,3.64,1.43.29-.29.51-.59.66-.88,2.8,2.36,4.78,5.67,5.96,9.93.95,3.12,1.84,4.78,2.66,5.02-.71.31-1.43.62-2.13.94-.44.3-.81,1.18-1.1,2.65-.29,1.62-.29,2.72,0,3.31,5.15-2.94,13.53-6.62,25.15-11.03,9.11-3.38,18.23-6.77,27.35-10.15.29-.15.77-.92,1.43-2.32.66-1.4.84-2.32.55-2.76-18.19,5.83-35.06,12.2-50.62,19.08.62-1.07,1.29-4.75,2.01-11.03.88-7.72,2.35-11.58,4.41-11.58,1.03,0,1.99.58,2.87,1.76.88,1.17,1.32,1.76,1.32,1.76.58,0,1.03-.89,1.32-2.65.44-1.77.44-2.87,0-3.31h0c-1.77-2.2-3.61-3.3-5.52-3.3-2.5-.14-4.33,3.16-5.51,9.93-.73,3.68-1.32,7.35-1.76,11.03-1.03-2.06-1.84-3.9-2.43-5.52-3.97-7.65-7.72-11.4-11.25-11.25-1.92,0-2.65,1.99-2.21,5.96.15.88,1.21,1.88,3.2,2.98ZM1182.18,213.81s0,0,0,0c0,0,0,0,0,0h0ZM1167.15,188.81c1.99,1.1,3.2,1.58,3.64,1.43.29-.29.51-.59.66-.88,2.8,2.36,4.78,5.67,5.96,9.93,1.03,3.38,1.99,5.07,2.87,5.07.74.15,1.55-3.64,2.43-11.36.88-7.72,2.35-11.58,4.41-11.58,1.03,0,1.99.58,2.87,1.76.88,1.17,1.32,1.76,1.32,1.76.58,0,1.03-.89,1.32-2.65.44-1.77.44-2.87,0-3.31h0c-1.77-2.2-3.61-3.3-5.52-3.3-2.5-.14-4.33,3.16-5.51,9.93-.73,3.68-1.32,7.35-1.76,11.03-1.03-2.06-1.84-3.9-2.43-5.52-3.97-7.65-7.72-11.4-11.25-11.25-1.92,0-2.65,1.99-2.21,5.96.15.88,1.21,1.88,3.2,2.98ZM1168.26,265.83l-5.38,9.7,11.2,6.57,5.39-9.69-11.2-6.57h-.01ZM1181.2,251.4h-.02c0-1.76-.74-4.19-2.21-7.28-1.62-3.53-2.43-5.66-2.43-6.4-.14-1.47-.44-2.21-.88-2.21s-.95,1.25-1.54,3.75c-.15.15-.22.37-.22.66,0,.89.15,1.62.44,2.21,2.5,5.59,3.75,8.9,3.75,9.93,0,.58-.29,1.03-.88,1.32-1.76.74-3.45.22-5.07-1.54-.88-1.17-1.39-2.79-1.54-4.85,0-2.8-.22-5.15-.66-7.06-.44-1.47-.88-2.57-1.32-3.31-.58-.74-1.03-.66-1.32.22-.29,1.18-.51,1.99-.66,2.43-.15.74-.07,1.44.22,2.1.29.66.66,3.13,1.1,7.39.15,1.76-.4,3.23-1.65,4.41-1.25,1.17-2.54,1.76-3.86,1.76-2.06,0-3.35-1.03-3.86-3.09-.51-2.05-.7-5.07-.55-9.04.14-3.68-.52-5.52-1.99-5.52-.14,0-.66.81-1.54,2.43s-1.32,2.65-1.32,3.09c0,.73.58,1.03,1.76.88-.3,4.41.07,8.23,1.1,11.47.59,1.62,1.55,2.94,2.87,3.97,1.03.73,2.13,1.1,3.31,1.1,2.65,0,4.78-1.76,6.4-5.29.44-.74.88-.66,1.32.22.44,1.18,1.25,2.06,2.43,2.65,2.94,1.77,5.37,1.62,7.28-.44,1.03-1.33,1.54-3.31,1.54-5.96ZM1111.14,203.48h0s0,0,0,0c0,0,0,0,0,0ZM1056.65,226.43c-.29,1.62-.29,2.72,0,3.31,5.15-2.94,13.53-6.62,25.15-11.03,9.11-3.38,18.23-6.77,27.35-10.15.29-.15.77-.92,1.43-2.32.66-1.4.84-2.32.55-2.76-19.27,6.18-37.06,12.95-53.38,20.3-.44.3-.81,1.18-1.1,2.65ZM901.89,176.39c2.21-.45,4.27-3.61,6.18-9.48-32.21,8.53-65.3,18.53-99.27,30-37.65,12.95-63.24,23.39-76.77,31.33-1.32.88-2.75,2.65-4.3,5.29-1.55,2.64-2.25,4.41-2.1,5.29,48.68-23.53,107.43-44.34,176.26-62.43ZM908.07,166.9s0,0,0,.01c0,0,0,0,0,0h0ZM869.8,233.22l4.52-8.19,10.88,6.36,5.38-9.7-11.2-6.57h.01s-4.52,8.2-4.52,8.2l-10.88-6.36-5.39,9.69,11.2,6.57ZM842.22,210.01c0-1.18-.51-.96-1.54.66-.44.59-.81,1.4-1.1,2.43-1.91,7.79-3.02,13.01-3.31,15.66-.29,4.56.45,8.09,2.21,10.59.59.88,1.47,1.25,2.65,1.1,1.32-.15,2.43-.89,3.31-2.21.44-.73.81-2.06,1.1-3.97.29-2.06.22-3.09-.22-3.09h-.02c-.44.01-.73.37-.88,1.11-.59,2.06-1.62,3.09-3.09,3.09-.58,0-1.1-.29-1.54-.88-.73-.88-1.1-2.64-1.1-5.29,0-3.68.96-9.2,2.87-16.55.44-1.33.66-2.21.66-2.65ZM817.68,226.31c-2.51-.14-4.34,3.16-5.52,9.93-.73,3.68-1.32,7.35-1.76,11.03-1.03-2.06-1.84-3.9-2.43-5.52-3.97-7.65-7.72-11.4-11.25-11.25-1.92,0-2.65,1.99-2.21,5.96.15.88,1.21,1.88,3.2,2.98s3.2,1.58,3.64,1.43c.29-.29.51-.59.66-.88,2.8,2.36,4.78,5.67,5.96,9.93,1.03,3.38,1.99,5.07,2.87,5.07.74.15,1.55-3.64,2.43-11.36.88-7.72,2.35-11.58,4.41-11.58,1.03,0,1.99.58,2.87,1.76.88,1.17,1.32,1.76,1.32,1.76.58,0,1.03-.89,1.32-2.65.44-1.77.44-2.87,0-3.31h.01c-1.77-2.2-3.61-3.3-5.52-3.3ZM878.62,206.72l-11.2-6.57h0s-5.38,9.7-5.38,9.7l11.2,6.57,5.38-9.7ZM733.05,201.48c1.99,1.1,3.2,1.58,3.64,1.43.29-.29.51-.59.66-.88,2.8,2.36,4.78,5.67,5.96,9.93,1.03,3.38,1.99,5.07,2.87,5.07.74.15,1.55-3.64,2.43-11.36.88-7.72,2.35-11.58,4.41-11.58,1.03,0,1.99.58,2.87,1.76.88,1.17,1.32,1.76,1.32,1.76.58,0,1.03-.89,1.32-2.65.44-1.77.44-2.87,0-3.31h.01c-1.77-2.2-3.61-3.3-5.52-3.3-2.51-.14-4.34,3.16-5.52,9.93-.73,3.68-1.32,7.35-1.76,11.03-1.03-2.06-1.84-3.9-2.43-5.52-3.97-7.65-7.72-11.4-11.25-11.25-1.92,0-2.65,1.99-2.21,5.96.15.88,1.21,1.88,3.2,2.98ZM1016.9,173.33s0,0,0,0c0,0,0,0,0,0h-.01ZM987.57,188.56c9.11-3.38,18.23-6.77,27.35-10.15.29-.15.77-.92,1.43-2.32.66-1.4.84-2.32.55-2.76-19.27,6.18-37.06,12.95-53.38,20.3-.44.3-.81,1.18-1.1,2.65-.29,1.62-.29,2.72,0,3.31,5.15-2.94,13.53-6.62,25.15-11.03ZM1802.31,222.93c3.71-4.14,6.64-8.07,8.8-11.78,1.9-2.85,3.19-5.13,3.88-6.86.87-2.59,1.04-5.18.52-7.77-.26-1.21-1.04-2.07-2.33-2.59-2.33-.95-4.75.3-7.25,3.75h.01c-1.47,1.99-1.82,3.07-1.04,3.24.08.08.47-.13,1.16-.65.86-.77,1.51-1.25,1.94-1.42.69-.52,1.42-.61,2.2-.26,1.21.43,1.85,1.43,1.94,2.98.26,2.24-.56,5.09-2.46,8.54-3.88,5.87-6.68,9.8-8.41,11.78-.77,1.04-1.33,1.86-1.68,2.46v.52c.43.26,1.34-.39,2.72-1.94ZM1059.09,206.45c1.32-.15,2.43-.89,3.31-2.21.44-.73.81-2.06,1.1-3.97.29-2.06.22-3.09-.22-3.09h-.02c-.44.01-.73.37-.88,1.11-.59,2.06-1.62,3.09-3.09,3.09-.58,0-1.1-.29-1.54-.88-.73-.88-1.1-2.64-1.1-5.29,0-3.68.96-9.2,2.87-16.55.44-1.33.66-2.21.66-2.65,0-1.18-.51-.96-1.54.66-.44.59-.81,1.4-1.1,2.43-1.91,7.79-3.02,13.01-3.31,15.66-.29,4.56.45,8.09,2.21,10.59.59.88,1.47,1.25,2.65,1.1ZM959.06,209.37c1.32-.15,2.43-.89,3.31-2.21.44-.73.81-2.06,1.1-3.97.29-2.06.22-3.09-.22-3.09h-.02c-.44.01-.73.37-.88,1.11-.59,2.06-1.62,3.09-3.09,3.09-.58,0-1.1-.29-1.54-.88-.73-.88-1.1-2.64-1.1-5.29,0-3.68.96-9.2,2.87-16.55.44-1.33.66-2.21.66-2.65,0-1.18-.51-.96-1.54.66-.44.59-.81,1.4-1.1,2.43-1.91,7.79-3.02,13.01-3.31,15.66-.29,4.56.45,8.09,2.21,10.59.59.88,1.47,1.25,2.65,1.1ZM905.58,208.43c-.73-.88-1.1-2.64-1.1-5.29,0-3.68.96-9.2,2.87-16.55.44-1.33.66-2.21.66-2.65,0-1.18-.51-.96-1.54.66-.44.59-.81,1.4-1.1,2.43-1.91,7.79-3.02,13.01-3.31,15.66-.29,4.56.45,8.09,2.21,10.59.59.88,1.47,1.25,2.65,1.1,1.32-.15,2.43-.89,3.31-2.21.44-.73.81-2.06,1.1-3.97.29-2.06.22-3.09-.22-3.09h-.02c-.44.01-.73.37-.88,1.11-.59,2.06-1.62,3.09-3.09,3.09-.58,0-1.1-.29-1.54-.88ZM915.42,287.98c-1.91.59-3.38.22-4.41-1.1-.29-.3-.22-1.25.22-2.87.15-.73.07-1.1-.22-1.1-1.03,0-1.91,1.1-2.65,3.31-1.32,3.53-3.82,5.29-7.5,5.29-1.32,0-2.57-.44-3.75-1.32-2.5-1.62-5.51-1.47-9.04.44-5,2.5-9.71,6.18-14.12,11.03-5.29,5.44-11.47,10.15-18.53,14.12-3.82,1.91-6.83,3.23-9.04,3.97-1.18.44-1.99.88-2.43,1.32,0,.29.22.44.66.44,1.62,0,4.78-.96,9.49-2.87,5.73-2.35,10.73-5.14,15-8.38,2.5-2.21,5.07-4.41,7.72-6.62,4.56-4.12,7.8-6.69,9.71-7.72,4.27-1.91,7.87-1.98,10.81-.22.88.59,1.99.88,3.31.88,3.23,0,5.74-1.32,7.5-3.97.44-.73.95-.88,1.54-.44,1.03,1.03,2.28,1.54,3.75,1.54,3.68,0,5.52-2.5,5.52-7.5h-.02c0-3.38-.58-5.07-1.76-5.07-.29,0-.88,1.03-1.76,3.09-.44.89-.3,1.55.44,1.99,1.03.88.88,1.47-.44,1.76ZM1098.35,238l-4.52,8.08-10.99-6.46-5.38,9.7,11.2,6.57,4.52-8.08,10.99,6.46,5.39-9.7-11.2-6.57h-.01ZM1590.75,241.5c.59,1.62,1.55,2.94,2.87,3.97,1.03.73,2.13,1.1,3.31,1.1,2.65,0,4.78-1.76,6.4-5.29.44-.74.88-.66,1.32.22.44,1.18,1.25,2.06,2.43,2.65,2.94,1.77,5.37,1.62,7.28-.44,1.03-1.33,1.54-3.31,1.54-5.96h-.02c0-1.76-.74-4.19-2.21-7.28-1.62-3.53-2.43-5.66-2.43-6.4-.14-1.47-.44-2.21-.88-2.21s-.95,1.25-1.54,3.75c-.15.15-.22.37-.22.66,0,.89.15,1.62.44,2.21,2.5,5.59,3.75,8.9,3.75,9.93,0,.58-.29,1.03-.88,1.32-1.76.74-3.45.22-5.07-1.54-.88-1.17-1.39-2.79-1.54-4.85,0-2.8-.22-5.15-.66-7.06-.44-1.47-.88-2.57-1.32-3.31-.58-.74-1.03-.66-1.32.22-.29,1.18-.51,1.99-.66,2.43-.15.74-.07,1.44.22,2.1.29.66.66,3.13,1.1,7.39.15,1.76-.4,3.23-1.65,4.41-1.25,1.17-2.54,1.76-3.86,1.76-2.06,0-3.35-1.03-3.86-3.09-.51-2.05-.7-5.07-.55-9.04.14-3.68-.52-5.52-1.99-5.52-.14,0-.66.81-1.54,2.43s-1.32,2.65-1.32,3.09c0,.73.58,1.03,1.76.88-.3,4.41.07,8.23,1.1,11.47ZM1478.03,260.44h0s0,0,0,0h-.01ZM1579.68,195.37c1.99,1.1,3.2,1.58,3.64,1.43.29-.29.51-.59.66-.88,2.8,2.36,4.78,5.67,5.96,9.93,1.03,3.38,1.99,5.07,2.87,5.07.74.15,1.55-3.64,2.43-11.36.88-7.72,2.35-11.58,4.41-11.58,1.03,0,1.99.58,2.87,1.76.88,1.17,1.32,1.76,1.32,1.76.58,0,1.03-.89,1.32-2.65.44-1.77.44-2.87,0-3.31h0c-1.77-2.2-3.61-3.3-5.52-3.3-2.5-.14-4.33,3.16-5.51,9.93-.73,3.68-1.32,7.35-1.76,11.03-1.03-2.06-1.84-3.9-2.43-5.52-3.97-7.65-7.72-11.4-11.25-11.25-1.92,0-2.65,1.99-2.21,5.96.15.88,1.21,1.88,3.2,2.98ZM1562.25,275.29c1.32-.15,2.43-.89,3.31-2.21.44-.73.81-2.06,1.1-3.97.29-2.06.22-3.09-.22-3.09h-.02c-.44.01-.73.37-.88,1.11-.59,2.06-1.62,3.09-3.09,3.09-.58,0-1.1-.29-1.54-.88-.73-.88-1.1-2.64-1.1-5.29,0-3.68.96-9.2,2.87-16.55.44-1.33.66-2.21.66-2.65,0-1.18-.51-.96-1.54.66-.44.59-.81,1.4-1.1,2.43-1.91,7.79-3.02,13.01-3.31,15.66-.29,4.56.45,8.09,2.21,10.59.59.88,1.47,1.25,2.65,1.1ZM1530.44,209.58s0,0,0,0c0,0,0,0,0,0h0ZM1530.23,239.27c-2.5-.14-4.33,3.16-5.51,9.93-.73,3.68-1.32,7.35-1.76,11.03-1.03-2.06-1.84-3.9-2.43-5.52-3.97-7.65-7.72-11.4-11.25-11.25-1.92,0-2.65,1.99-2.21,5.96.15.88,1.21,1.88,3.2,2.98,1.99,1.1,3.2,1.58,3.64,1.43.29-.29.51-.59.66-.88,2.8,2.36,4.78,5.67,5.96,9.93,1.03,3.38,1.99,5.07,2.87,5.07.74.15,1.55-3.64,2.43-11.36.88-7.72,2.35-11.58,4.41-11.58,1.03,0,1.99.58,2.87,1.76.88,1.17,1.32,1.76,1.32,1.76.58,0,1.03-.89,1.32-2.65.44-1.77.44-2.87,0-3.31h0c-1.77-2.2-3.61-3.3-5.52-3.3ZM1475.96,232.53c-.29,1.62-.29,2.72,0,3.31,5.15-2.94,13.53-6.62,25.15-11.03,9.11-3.38,18.23-6.77,27.35-10.15.29-.15.77-.92,1.43-2.32.66-1.4.84-2.32.55-2.76-19.27,6.18-37.06,12.95-53.38,20.3-.44.3-.81,1.18-1.1,2.65ZM1550.65,218.26c1.32-.15,2.43-.89,3.31-2.21.44-.73.81-2.06,1.1-3.97.29-2.06.22-3.09-.22-3.09h-.02c-.44.01-.73.37-.88,1.11-.59,2.06-1.62,3.09-3.09,3.09-.58,0-1.1-.29-1.54-.88-.73-.88-1.1-2.64-1.1-5.29,0-3.68.96-9.2,2.87-16.55.44-1.33.66-2.21.66-2.65,0-1.18-.51-.96-1.54.66-.44.59-.81,1.4-1.1,2.43-1.91,7.79-3.02,13.01-3.31,15.66-.29,4.56.45,8.09,2.21,10.59.59.88,1.47,1.25,2.65,1.1ZM1688.87,224.25c-1.92,0-2.65,1.99-2.21,5.96.15.88,1.21,1.88,3.2,2.98,1.99,1.1,3.2,1.58,3.64,1.43.29-.29.51-.59.66-.88,2.8,2.36,4.78,5.67,5.96,9.93,1.03,3.38,1.99,5.07,2.87,5.07.74.15,1.55-3.64,2.43-11.36.88-7.72,2.35-11.58,4.41-11.58,1.03,0,1.99.58,2.87,1.76.88,1.17,1.32,1.76,1.32,1.76.58,0,1.03-.89,1.32-2.65.44-1.77.44-2.87,0-3.31h0c-1.77-2.2-3.61-3.3-5.52-3.3-2.5-.14-4.33,3.16-5.51,9.93-.73,3.68-1.32,7.35-1.76,11.03-1.03-2.06-1.84-3.9-2.43-5.52-3.97-7.65-7.72-11.4-11.25-11.25ZM1745.05,258.81l-5.38,9.7,11.2,6.57,5.39-9.69-11.2-6.57h-.01ZM1225.37,200.89c.94,7.39,2.88,19.46,5.82,36.19,2.73,15.58,4.56,27.68,5.49,36.3.28,3.02.53,6.03.75,9.05.22,3.01.58,4.52,1.08,4.52.86,0,1.61-1.72,2.26-5.17.79-3.88,1.18-8.44,1.18-13.68v.03c.01-6.32-1.17-16.49-3.54-30.49-1.65-9.77-3.34-19.5-5.06-29.19,2.87,3.8,4.7,5.49,5.49,5.06.15-.07.22-.25.22-.54,0-1.73-1.67-6.36-5.01-13.9-3.34-7.54-5.23-11.31-5.66-11.31-.22,0-.99,1.83-2.32,5.49-1.33,3.66-1.99,5.67-1.99,6.03,0,.43.43.96,1.29,1.61ZM1630.44,202.23h0s0,0,0,0c0,0,0,0,0,0ZM1575.95,225.18c-.29,1.62-.29,2.72,0,3.31,5.15-2.94,13.53-6.62,25.15-11.03,9.11-3.38,18.23-6.77,27.35-10.15.29-.15.77-.92,1.43-2.32.66-1.4.84-2.32.55-2.76-19.27,6.18-37.06,12.95-53.38,20.3-.44.3-.81,1.18-1.1,2.65ZM1630.02,242.18c-2.5-.14-4.33,3.16-5.51,9.93-.73,3.68-1.32,7.35-1.76,11.03-1.03-2.06-1.84-3.9-2.43-5.52-3.97-7.65-7.72-11.4-11.25-11.25-1.92,0-2.65,1.99-2.21,5.96.15.88,1.21,1.88,3.2,2.98,1.99,1.1,3.2,1.58,3.64,1.43.29-.29.51-.59.66-.88,2.8,2.36,4.78,5.67,5.96,9.93,1.03,3.38,1.99,5.07,2.87,5.07.74.15,1.55-3.64,2.43-11.36.88-7.72,2.35-11.58,4.41-11.58,1.03,0,1.99.58,2.87,1.76.88,1.17,1.32,1.76,1.32,1.76.58,0,1.03-.89,1.32-2.65.44-1.77.44-2.87,0-3.31h0c-1.77-2.2-3.61-3.3-5.52-3.3ZM1710.59,260.44h0s0,0,0,0h-.01ZM1353.32,187.18c1.38.86,2.24,1.29,2.59,1.29.17,0,.35-.35.52-1.04.78.43,1.73,1.64,2.85,3.62.95,1.64,1.46,2.77,1.55,3.37-.78,0-1.47.6-2.07,1.81-.52.95-.78,1.86-.78,2.72,0,.43.04.65.13.65.18,0,.43-.35.78-1.04.34-.69.77-1.04,1.29-1.04.86,0,1.51.17,1.94.52-1.55.26-2.89.99-4.01,2.2-1.29,1.38-1.94,2.98-1.94,4.79,0,1.46.69,5.04,2.07,10.74,1.38,6.48,2.38,11.44,2.98,14.89.09.43.22.69.39.78.26,0,.39-.51.39-1.55,0-1.38-1.6-9.84-4.79-25.37-.09-.69.84-1.43,2.78-2.2,1.94-.77,3.82-1.25,5.63-1.42.17,0,.41-.35.71-1.04.3-.69.41-1.25.32-1.68-.09-.35-.76-1.06-2.01-2.14-1.25-1.08-2.09-1.62-2.52-1.62.17-3.89.35-7.25.52-10.1,0-1.55.65-2.33,1.94-2.33.86,0,1.6.43,2.2,1.29.44.6.74.6.91,0,.26-1.47.26-2.33,0-2.59v.02c-1.21-1.21-2.33-1.81-3.37-1.81-1.56,0-2.5,1.64-2.85,4.92-.09,3.19-.13,5.48-.13,6.86v.13c-1.21-2.76-2.72-5-4.53-6.73-1.64-1.47-3.11-2.2-4.4-2.2-.77,0-1.16,1.16-1.16,3.49,0,.34.69.95,2.07,1.81ZM1385.55,200.9c1.99,1.1,3.2,1.58,3.64,1.43.29-.29.51-.59.66-.88,2.8,2.36,4.78,5.67,5.96,9.93,1.03,3.38,1.99,5.07,2.87,5.07.74.15,1.55-3.64,2.43-11.36.88-7.72,2.35-11.58,4.41-11.58,1.03,0,1.99.58,2.87,1.76.88,1.17,1.32,1.76,1.32,1.76.58,0,1.03-.89,1.32-2.65.44-1.77.44-2.87,0-3.31h0c-1.77-2.2-3.61-3.3-5.52-3.3-2.5-.14-4.33,3.16-5.51,9.93-.73,3.68-1.32,7.35-1.76,11.03-1.03-2.06-1.84-3.9-2.43-5.52-3.97-7.65-7.72-11.4-11.25-11.25-1.92,0-2.65,1.99-2.21,5.96.15.88,1.21,1.88,3.2,2.98ZM1362.06,287.94c0,1.82.46,3.39,1.37,4.71.71,1.21,1.47,1.82,2.28,1.82,2.23,0,3.34-1.82,3.34-5.47h.02c0-1.52-.16-2.28-.46-2.28-.41,0-.61.41-.61,1.22,0,1.93-.71,2.89-2.13,2.89s-2.13-1.22-2.13-3.65c0-2.73.76-5.97,2.28-9.72.51-1.52.76-3.69.76-6.53,0-4.96-1.27-9.67-3.8-14.13-.71-1.21-1.22-1.82-1.52-1.82-.21,0-.49.59-.84,1.75-.35,1.16-.53,1.9-.53,2.2s.2.65.61,1.06c2.83,3.14,4.25,7.14,4.25,12,0,2.13-.25,3.95-.76,5.47-1.42,3.64-2.13,7.14-2.13,10.48ZM1427.65,213.12c1.32-.15,2.43-.89,3.31-2.21.44-.73.81-2.06,1.1-3.97.29-2.06.22-3.09-.22-3.09h-.02c-.44.01-.73.37-.88,1.11-.59,2.06-1.62,3.09-3.09,3.09-.58,0-1.1-.29-1.54-.88-.73-.88-1.1-2.64-1.1-5.29,0-3.68.96-9.2,2.87-16.55.44-1.33.66-2.21.66-2.65,0-1.18-.51-.96-1.54.66-.44.59-.81,1.4-1.1,2.43-1.91,7.79-3.02,13.01-3.31,15.66-.29,4.56.45,8.09,2.21,10.59.59.88,1.47,1.25,2.65,1.1ZM1288.21,217.41c1.32-.15,2.43-.89,3.31-2.21.44-.73.81-2.06,1.1-3.97.29-2.06.22-3.09-.22-3.09h-.02c-.44,0-.73.37-.88,1.11-.59,2.06-1.62,3.09-3.09,3.09-.58,0-1.1-.29-1.54-.88-.73-.88-1.1-2.64-1.1-5.29,0-3.68.96-9.2,2.87-16.55.44-1.33.66-2.21.66-2.65,0-1.18-.51-.96-1.54.66-.44.59-.81,1.4-1.1,2.43-1.91,7.79-3.02,13.01-3.31,15.66-.29,4.56.45,8.09,2.21,10.59.59.88,1.47,1.25,2.65,1.1ZM1247.13,197.67c1.99,1.1,3.2,1.58,3.64,1.43.29-.29.51-.59.66-.88,2.8,2.36,4.78,5.67,5.96,9.93,1.03,3.38,1.99,5.07,2.87,5.07.74.15,1.55-3.64,2.43-11.36.88-7.72,2.35-11.58,4.41-11.58,1.03,0,1.99.58,2.87,1.76.88,1.17,1.32,1.76,1.32,1.76.58,0,1.03-.89,1.32-2.65.44-1.77.44-2.87,0-3.31h0c-1.77-2.2-3.61-3.3-5.52-3.3-2.5-.14-4.33,3.16-5.51,9.93-.73,3.68-1.32,7.35-1.76,11.03-1.03-2.06-1.84-3.9-2.43-5.52-3.97-7.65-7.72-11.4-11.25-11.25-1.92,0-2.65,1.99-2.21,5.96.15.88,1.21,1.88,3.2,2.98ZM1405.45,259.16l5.39-9.7-11.2-6.57-5.39,9.7,11.2,6.57ZM1423.92,259.18c0-1.18-.51-.96-1.54.66-.44.59-.81,1.4-1.1,2.43-1.91,7.79-3.02,13.01-3.31,15.66-.29,4.56.45,8.09,2.21,10.59.59.88,1.47,1.25,2.65,1.1,1.32-.15,2.43-.89,3.31-2.21.44-.73.81-2.06,1.1-3.97.29-2.06.22-3.09-.22-3.09h-.02c-.44.01-.73.37-.88,1.11-.59,2.06-1.62,3.09-3.09,3.09-.58,0-1.1-.29-1.54-.88-.73-.88-1.1-2.64-1.1-5.29,0-3.68.96-9.2,2.87-16.55.44-1.33.66-2.21.66-2.65ZM1757.12,232.78c0-1.91-2.79-4.56-8.38-7.94,0-.74.22-1.62.66-2.65.29-.59.22-.88-.22-.88s-1.02,1.18-1.76,3.53c-2.79,4.11-4.19,8.3-4.19,12.57,0,3.83,1.54,5.74,4.63,5.74,6.18,0,9.27-3.46,9.27-10.37h-.01ZM1751.96,236.65c-1.69.66-2.9.99-3.64.99-1.62,0-2.43-.81-2.43-2.43,0-.59.26-1.62.77-3.09.51-1.47.92-2.21,1.21-2.21.15,0,1.29.78,3.42,2.32,2.13,1.55,3.2,2.47,3.2,2.76h.01c0,.45-.85,1-2.54,1.66ZM1739.54,200.83c9.11-3.38,18.23-6.77,27.35-10.15.29-.15.77-.92,1.43-2.32.66-1.4.84-2.32.55-2.76-19.27,6.18-37.06,12.95-53.38,20.3-.44.3-.81,1.18-1.1,2.65-.29,1.62-.29,2.72,0,3.31,5.15-2.94,13.53-6.62,25.15-11.03ZM1366.58,241.56c-1.11.75-2.32,2.23-3.62,4.46-1.3,2.23-1.88,3.72-1.76,4.46,40.98-19.81,90.44-37.33,148.38-52.56,1.86-.38,3.59-3.04,5.2-7.99-27.11,7.18-54.97,15.6-83.57,25.26-31.7,10.89-53.24,19.68-64.63,26.37ZM1462.53,262.06l-5.39,9.7,11.2,6.57,4.52-8.08,10.99,6.46,5.38-9.7-11.19-6.57-4.52,8.08-10.99-6.46ZM784.8,234.83l-11.2-6.57h-.01s-5.38,9.7-5.38,9.7l11.2,6.57,5.39-9.7ZM652.36,220.84s0,0,0,0c0,0,0,0,0,0h-.01ZM1325.72,299.43c4.71-3.53,7.06-6.99,7.06-10.37,0-1.62-2.21-2.43-6.62-2.43-3.09,0-5.15.29-6.18.88-1.47.88-2.72,2.57-3.75,5.07-.29.59-.29.95,0,1.1.29.29.66.22,1.1-.22,1.18-1.03,3.31-1.54,6.4-1.54,1.61,0,3.31.22,5.07.66-4.71,3.83-7.28,5.96-7.72,6.4-2.94,3.24-4.41,6.69-4.41,10.37,0,3.97,2.95,5.96,9.27,5.96s11.62-2.43,15.88-7.28h0c.73-.88.88-1.39.44-1.54-.29-.15-.8,0-1.54.44-3.97,2.35-8.75,3.53-14.34,3.53-1.47,0-3.01-.4-4.63-1.21s-2.43-1.66-2.43-2.54c0-1.91,2.14-4.34,6.4-7.28ZM1095.76,323.5l11.2,6.57,5.39-9.69-11.2-6.57-5.39,9.69ZM1241.61,332.54c-3.97,2.35-8.75,3.53-14.34,3.53-1.47,0-3.01-.4-4.63-1.21s-2.43-1.66-2.43-2.54c0-1.91,2.14-4.34,6.4-7.28,4.71-3.53,7.06-6.99,7.06-10.37,0-1.62-2.21-2.43-6.62-2.43-3.09,0-5.15.29-6.18.88-1.47.88-2.72,2.57-3.75,5.07-.29.59-.29.95,0,1.1.29.29.66.22,1.1-.22,1.18-1.03,3.31-1.54,6.4-1.54,1.61,0,3.31.22,5.07.66-4.71,3.83-7.28,5.96-7.72,6.4-2.94,3.24-4.41,6.69-4.41,10.37,0,3.97,2.95,5.96,9.27,5.96s11.62-2.43,15.88-7.28h0c.73-.88.88-1.39.44-1.54-.29-.15-.8,0-1.54.44ZM1279.38,298.02c-2.5-.14-4.33,3.16-5.51,9.93-.73,3.68-1.32,7.35-1.76,11.03-1.03-2.06-1.84-3.9-2.43-5.52-3.97-7.65-7.72-11.4-11.25-11.25-1.92,0-2.65,1.99-2.21,5.96.15.88,1.21,1.88,3.2,2.98,1.99,1.1,3.2,1.58,3.64,1.43.29-.29.51-.59.66-.88,2.8,2.36,4.78,5.67,5.96,9.93,1.03,3.38,1.99,5.07,2.87,5.07.74.15,1.55-3.64,2.43-11.36.88-7.72,2.35-11.58,4.41-11.58,1.03,0,1.99.58,2.87,1.76.58.77.95,1.26,1.14,1.53l-.09-.06h0s-5.38,9.7-5.38,9.7l11.2,6.57,5.38-9.7-10.76-6.31c.5-.16.89-1.03,1.15-2.62.44-1.77.44-2.87,0-3.31h0c-1.77-2.2-3.61-3.3-5.52-3.3ZM1308.1,298.24c0-1.18-.51-.96-1.54.66-.44.59-.81,1.4-1.1,2.43-1.91,7.79-3.02,13.01-3.31,15.66-.29,4.56.45,8.09,2.21,10.59.59.88,1.47,1.25,2.65,1.1,1.32-.15,2.43-.89,3.31-2.21.44-.73.81-2.06,1.1-3.97.29-2.06.22-3.09-.22-3.09h-.02c-.44.01-.73.37-.88,1.11-.59,2.06-1.62,3.09-3.09,3.09-.58,0-1.1-.29-1.54-.88-.73-.88-1.1-2.64-1.1-5.29,0-3.68.96-9.2,2.87-16.55.44-1.33.66-2.21.66-2.65ZM1331.07,323.25s0,0,0,0c0,0,0,0,0,0h-.01ZM1298.4,340.2c10.15-3.77,20.31-7.53,30.46-11.3.33-.16.86-1.02,1.6-2.58.73-1.56.94-2.58.61-3.07-21.46,6.88-41.26,14.41-59.44,22.6-.49.33-.9,1.31-1.23,2.95-.33,1.8-.33,3.02,0,3.68,5.73-3.27,15.06-7.37,28-12.28ZM978.23,287.89h-.02c-.44,0-.73.37-.88,1.11-.59,2.06-1.62,3.09-3.09,3.09-.58,0-1.1-.29-1.54-.88-.73-.88-1.1-2.64-1.1-5.29,0-3.68.96-9.2,2.87-16.55.44-1.33.66-2.21.66-2.65,0-1.18-.51-.96-1.54.66-.44.59-.81,1.4-1.1,2.43-1.91,7.79-3.02,13.01-3.31,15.66-.29,4.56.45,8.09,2.21,10.59.59.88,1.47,1.25,2.65,1.1,1.32-.15,2.43-.89,3.31-2.21.44-.73.81-2.06,1.1-3.97.29-2.06.22-3.09-.22-3.09ZM1092.98,323.31s0,0,0,0c0,0,0,0,0,0h0ZM1371.59,341.72h-.02c-.44.01-.73.37-.88,1.11-.59,2.06-1.62,3.09-3.09,3.09-.58,0-1.1-.29-1.54-.88-.73-.88-1.1-2.64-1.1-5.29,0-3.68.96-9.2,2.87-16.55.44-1.33.66-2.21.66-2.65,0-1.18-.51-.96-1.54.66-.44.59-.81,1.4-1.1,2.43-1.91,7.79-3.02,13.01-3.31,15.66-.29,4.56.45,8.09,2.21,10.59.59.88,1.47,1.25,2.65,1.1,1.32-.15,2.43-.89,3.31-2.21.44-.73.81-2.06,1.1-3.97.29-2.06.22-3.09-.22-3.09ZM1133.81,267.46h0s0,0,0,0h-.01ZM1339.83,363.32c-10.63,1.01-21.79,1.51-33.5,1.51-22.26,0-37.95-3.23-47.07-9.69-7.47-5.17-11.2-13.03-11.2-23.59,0-9.41,2.33-18.1,7-26.07,4.45-7.32,10.05-12.74,16.8-16.26.57.58,1,.94,1.29,1.08.79,1.01,1.33,1.51,1.62,1.51s.57-.72.86-2.16c.29-1.36.36-2.4.22-3.12,2.8-1.58,5.74-3.2,8.83-4.85,14.58-6.61,27.36-12.42,38.35-17.45,2.95-6.32,4.42-9.84,4.42-10.56,0-.29-6.39-1.01-19.17-2.16-14.58-1.37-27.14-2.05-37.7-2.05-12.63,0-20.28,1.9-22.94,5.71-2.08,2.94-3.12,5.6-3.12,7.97,0,3.95,2.66,7.72,7.97,11.31,4.82,3.23,9.59,6.39,14.33,9.48-3.52,2.87-6.66,6.21-9.42,10.02.55-1.5.82-2.44.82-2.8h-.01c0-.37-.43-.51-1.29-.44-16.08,1.01-32.85-.5-50.3-4.52-.06-.01-.13-.03-.19-.04.93-.51,1.68-1.03,2.24-1.57,3.52-3.38,5.28-9.05,5.28-17.02h0c0-5.1-1.4-15.76-4.2-31.99-1.58-9.99-3.26-19.97-5.06-29.95,2.08,2.01,3.34,3.27,3.77,3.77,1.65,1.87,2.77,2.59,3.34,2.16.57-.29-1.37-5.07-5.82-14.33-3.81-8.4-5.93-12.6-6.36-12.6-.14,0-.71,1.26-1.72,3.77-1.22,3.09-2.12,5.46-2.69,7.11-.28.57.22,1.43,1.51,2.58,1.22,10.34,3.73,25.93,7.54,46.75,3.37,18.38,5.06,28.76,5.06,31.13,0,1.01-4.49,2.41-13.47,4.2-8.99,1.83-13.94,3.05-14.84,3.66-.08,0-.16,0-.24,0-.65.14-1.67,1.74-3.07,4.79s-2.1,4.87-2.1,5.44.43.82,1.29.75c2.95-.28,6.93-.21,11.96.22,9.83.79,19.71,2.27,29.62,4.42-15.73,7.54-26.65,11.31-32.75,11.31-.06,0-.12,0-.19.01-2.64-.04-4.87-.97-6.69-2.79-2.59-2.8-3.27-5.6-2.05-8.4.29-.72.29-1.15,0-1.29-.65-.37-1.58.32-2.8,2.04-2.37,3.51-4.27,6.42-5.71,8.72-3.09,3.01-7.18,4.66-12.28,4.95-.38,0-.72.05-1.05.15-5.5-.05-9.88-2.43-13.17-7.13-1.51-2.01-2.91-4.02-4.2-6.03-1.3-2.01-2.77-3.02-4.42-3.02-2.52,0-5.39,1.68-8.62,5.06-3.81,4.02-7.19,9.48-10.13,16.37-5.17,12.21-9.51,18.31-13.03,18.31-3.08,0-5.8-1.87-8.13-5.6-.77-1.23-1.4-2.59-1.92-4.04.28-.37.65-1.03,1.1-1.99.66-1.4.84-2.32.55-2.76-.9.29-1.79.59-2.68.88-.36-1.95-.55-4.05-.55-6.31,0-2.8.28-6.03.86-9.69.16-.84.25-1.51.27-2.04,1.51-1.8,2.97-3.9,4.36-6.32.65,3.59,1.58,6.07,2.8,7.43,1.94,2.22,4.49,3.41,7.65,3.55.37,0,.71-.05,1.03-.15,10.14-.38,15.23-5.85,15.23-16.44h.02c0-4.03-.75-7.58-2.26-10.67-.2-.42-.4-.79-.58-1.14l4.99,2.93,4.52-8.08,10.99,6.46,5.38-9.7-11.19-6.57-4.52,8.08-10.99-6.46-5.39,9.7,3.7,2.17c-.24.73-.52,1.88-.85,3.48-.61,2.94-.92,4.67-.92,5.17l1.56,2.85c1.04,1.9,1.56,3.21,1.56,3.93s-.97,1.47-2.91,2.26c-1.9.95-4.03,1.43-6.37,1.49-.13-.05-.27-.08-.42-.08h0c-2.73,0-5.02-.92-6.89-2.79-2.59-2.8-3.27-5.6-2.05-8.4.29-.72.29-1.15,0-1.29-.65-.37-1.58.32-2.8,2.04-2.37,3.51-4.27,6.42-5.71,8.72-3.09,3.01-7.18,4.66-12.28,4.95-.11,0-.22.01-.33.02-9.86-.1-16.04-4.73-18.53-13.89-1.51-7.54-2.55-13.21-3.12-17.02-3.02-14.37-9.16-28.08-18.42-41.15-1.15-1.58-1.86-2.37-2.15-2.37-.65,0-.97,3.77-.97,11.31,0,.58.69,2.19,2.05,4.85,4.31,8.54,8.18,17.45,11.63,26.71,3.09,8.54,4.63,14,4.63,16.37,0,2.73-6.1,8.91-18.31,18.53-13.5,10.55-24.34,15.83-32.53,15.83-4.23,0-7.18-.65-8.83-1.94-1.87-1.51-2.8-4.38-2.8-8.62,0-.83.05-1.67.15-2.54.13-.06.25-.11.38-.16,7.04-3.23,12.24-7.14,15.62-11.74,2.23-2.94,3.34-7.79,3.34-14.54,0-8.05-6.14-16.13-18.42-24.24-15.65-10.35-24.7-16.7-27.14-19.07,1.5.22,2.54.4,3.12.54,1.73.65,2.73.69,3.02.11.28-.58-.54-1.44-2.48-2.59-9.41-5.75-14.11-9.09-14.11-10.02,0-1.36,10.7-7.97,32.1-19.82,26.14-14.58,42.51-21.87,49.12-21.87,2.95,0,4.42,1.29,4.42,3.88,0,1.51-1.08,3.74-3.23,6.68-.2.27-.39.56-.58.83l-3.62-2.12-5.38,9.7,2.95,1.73c-1.2,2.03-2.37,4.09-3.5,6.23-3.09,5.89-4.63,9.27-4.63,10.13,0,.21.08.36.22.43.29.21,1.58-1.22,3.88-4.31,2.63-3.64,5.02-7.18,7.2-10.62l5.08,2.98,5.38-9.7-4.85-2.84c.56-1.04,1.1-2.07,1.62-3.09,2.87-5.6,4.31-10.45,4.31-14.54h-.03c0-3.95-1.94-5.92-5.82-5.92-6.03,0-20.1,5.57-42.22,16.7-24.2,12.21-38.53,21.33-42.98,27.36-1.53,2.1-2.67,4.4-3.44,6.92-1.86-12.72-3.9-23.47-6.11-32.23-1-3.95-2.33-7.9-3.98-11.85-1.37-3.52-2.19-5.28-2.48-5.28-.22,0-.77,1.72-1.67,5.17s-1.27,5.35-1.13,5.71c2.83,6.49,5.46,16.37,7.89,29.59-1.26-1.06-2.55-1.61-3.87-1.61-2.51-.14-4.34,3.16-5.52,9.93-.73,3.68-1.32,7.35-1.76,11.03-1.03-2.06-1.84-3.9-2.43-5.52-3.97-7.65-7.72-11.4-11.25-11.25-1.92,0-2.65,1.99-2.21,5.96.15.88,1.21,1.88,3.2,2.98,1.99,1.1,3.2,1.58,3.64,1.43.29-.29.51-.59.66-.88,2.8,2.36,4.78,5.67,5.96,9.93,1.03,3.38,1.99,5.07,2.87,5.07.74.15,1.55-3.64,2.43-11.36.88-7.72,2.35-11.58,4.41-11.58,1.03,0,1.99.58,2.87,1.76.88,1.17,1.32,1.76,1.32,1.76.34,0,.63-.31.87-.9.92,5.52,1.8,11.54,2.66,18.06l4.85,38.99c2.65,21.74,9.21,32.65,19.69,32.74.04,0,.07.01.1.01,5.37,0,11.01-1.18,16.9-3.52-.54,3.09-.83,6.27-.83,9.55,0,3.66,1.04,6.75,3.12,9.26,2.59,3.16,6.39,4.74,11.42,4.74,6.75,0,15.97-4.13,27.68-12.39,2.63-1.87,5.05-3.69,7.27-5.48-.26.98-.31,2.33-.12,4.08.15.88,1.21,1.88,3.2,2.98,1.99,1.1,3.2,1.58,3.64,1.43.29-.29.51-.59.66-.88,2.8,2.36,4.78,5.67,5.96,9.93.67,2.19,1.3,3.66,1.91,4.43-4.28,1.77-8.47,3.58-12.56,5.42-.44.3-.81,1.18-1.1,2.65-.29,1.62-.29,2.72,0,3.31,5.15-2.94,13.53-6.62,25.15-11.03,7.93-2.94,15.86-5.89,23.79-8.83.75,3.03,2.01,5.91,3.81,8.63,3.09,5.17,6.62,7.75,10.13,7.75s6.6-2.51,9.26-7.54c2.23-4.96,4.35-10.02,6.36-15.19,4.31-9.27,8.97-13.9,14-13.9,1.72,0,4.51,2.53,8.35,7.59,3.67,4.85,8.12,7.36,13.33,7.58-.14.91-.14,2.05.02,3.46.15.88,1.21,1.88,3.2,2.98,1.99,1.1,3.2,1.58,3.64,1.43.29-.29.51-.59.66-.88,2.8,2.36,4.78,5.67,5.96,9.93,1.03,3.38,1.99,5.07,2.87,5.07.74.15,1.55-3.64,2.43-11.36.88-7.72,2.35-11.58,4.41-11.58,1.03,0,1.99.58,2.87,1.76.88,1.17,1.32,1.76,1.32,1.76.58,0,1.03-.89,1.32-2.65.42-1.67.43-2.74.07-3.22.55.1,1.11.18,1.7.2.15,0,.29-.01.42-.03,6.33-.17,17.56-3.99,33.72-11.5,9.98-4.67,19.39-7.47,28.22-8.4,2.81-.31,5.18-.28,7.16.04-1.56,3-2.95,6.21-4.16,9.65-3.23,8.98-4.85,17.49-4.85,25.53,0,14.73,4.78,25.17,14.33,31.35,8.98,5.89,23.3,8.83,42.98,8.83,6.68,0,12.21-.61,16.59-1.83,3.09-.72,9.12-2.91,18.1-6.57,8.69-3.52,12.96-5.42,12.82-5.71h-.03c0-.29-2.88-.15-8.62.43ZM1260.47,267.99c-5.6-3.52-8.4-5.5-8.4-5.93,0-1.36,6.04-2.04,18.1-2.04,16.16,0,28.58.75,37.27,2.26h0c-15.58,6.46-26.93,12.28-34.04,17.45-2.16-3.66-6.47-7.58-12.93-11.74ZM974,303.29s-.03,0-.05,0h0s0,0,0,0c-8.25,0-13.66-7.82-16.25-23.48-.7-3.89-2.57-17.44-5.62-40.64,2.19,1.25,4.38,3.05,6.56,5.41,4.82,5.17,14.98,12.81,30.49,22.94,12.07,7.9,18.1,14.58,18.1,20.04,0,2.37-3.66,5.49-10.99,9.37-.63.33-1.24.63-1.86.94.24-.69.37-1.09.37-1.15,0-.29-.18-.43-.54-.43-.73,0-1.55.94-2.46,2.81-6.26,2.77-12.18,4.18-17.74,4.19ZM1087.91,310.34c-.86,4.09-1.29,8.29-1.29,12.6,0,.82.04,1.62.11,2.42-11.47,3.82-22.4,7.86-32.79,12.11.51-1.71,1.04-5.04,1.61-10,.88-7.72,2.35-11.58,4.41-11.58,1.03,0,1.99.58,2.87,1.76.88,1.17,1.32,1.76,1.32,1.76.58,0,1.03-.89,1.32-2.65.44-1.77.44-2.87,0-3.31h.01c-1.77-2.2-3.61-3.3-5.52-3.3-2.51-.14-4.34,3.16-5.52,9.93-.73,3.68-1.32,7.35-1.76,11.03-1.03-2.06-1.84-3.9-2.43-5.52-3.9-7.52-7.59-11.26-11.07-11.25,5.97-5.06,10.22-9.79,12.76-14.18,1.08-1.87,1.76-4.99,2.05-9.37,3.43,15.46,10.72,23.2,21.86,23.26.04,0,.07.01.11.01,4.46,0,8.55-1.73,12.3-5.17-.12.45-.23.93-.35,1.45ZM1170.35,327.87c-.73,3.68-1.32,7.35-1.76,11.03-1.03-2.06-1.84-3.9-2.43-5.52-2.42-4.67-4.76-7.87-7.02-9.64,5.04-1.86,9.56-6.25,13.56-13.19.65,3.57,1.57,6.04,2.78,7.4-2.3.21-4.01,3.5-5.13,9.92ZM1008.91,266.7c1.99,1.1,3.2,1.58,3.64,1.43.29-.29.51-.59.66-.88,2.8,2.36,4.78,5.67,5.96,9.93,1.03,3.38,1.99,5.07,2.87,5.07.74.15,1.55-3.64,2.43-11.36.88-7.72,2.35-11.58,4.41-11.58,1.03,0,1.99.58,2.87,1.76.88,1.17,1.32,1.76,1.32,1.76.58,0,1.03-.89,1.32-2.65.44-1.77.44-2.87,0-3.31h.01c-1.77-2.2-3.61-3.3-5.52-3.3-2.51-.14-4.34,3.16-5.52,9.93-.73,3.68-1.32,7.35-1.76,11.03-1.03-2.06-1.84-3.9-2.43-5.52-3.97-7.65-7.72-11.4-11.25-11.25-1.92,0-2.65,1.99-2.21,5.96.15.88,1.21,1.88,3.2,2.98ZM1006.23,207.37c0-1.18-.51-.96-1.54.66-.44.59-.81,1.4-1.1,2.43-1.91,7.79-3.02,13.01-3.31,15.66-.29,4.56.45,8.09,2.21,10.59.59.88,1.47,1.25,2.65,1.1,1.32-.15,2.43-.89,3.31-2.21.44-.73.81-2.06,1.1-3.97.29-2.06.22-3.09-.22-3.09h-.02c-.44.01-.73.37-.88,1.11-.59,2.06-1.62,3.09-3.09,3.09-.58,0-1.1-.29-1.54-.88-.73-.88-1.1-2.64-1.1-5.29,0-3.68.96-9.2,2.87-16.55.44-1.33.66-2.21.66-2.65ZM994.34,241.6c-.96.18-2.13.42-3.51.72s-2.84.6-4.37.9c-1.53.3-2.84.57-3.92.81-.84.12-1.68.24-2.52.36s-1.68.06-2.52-.18c-.84-.12-1.62-.36-2.34-.72-.72-.36-1.5-.69-2.34-.99.36.66.77,1.28,1.22,1.85.45.57.92,1.16,1.4,1.76.48.42,1.04.71,1.67.86.63.15,1.25.2,1.85.14,2.4-.3,4.82-.69,7.25-1.17s4.79-1.05,7.07-1.71c.48-.12.92-.23,1.31-.32.39-.09.8-.29,1.22-.59.42-.36.72-.83.9-1.4s.19-1.17.04-1.8-.42-1.23-.81-1.8-.89-1.07-1.49-1.49c-.48-.36-1.02-.54-1.62-.54s-1.2.06-1.8.18c-1.56.3-3.12.63-4.68.99-1.56.36-3.12.6-4.68.72-.48.06-1.07.04-1.76-.05-.69-.09-1.01-.38-.95-.86.12-.66.36-1.29.72-1.89.36-.6.72-1.23,1.08-1.89.48-.72.99-1.46,1.53-2.21s1.2-1.31,1.98-1.67c.3-.18.53-.16.68.05.15.21.32.38.5.5.12-.48.26-.99.41-1.53.15-.54.07-1.02-.23-1.44-.18-.3-.39-.41-.63-.32s-.48.2-.72.32h-.05c-.6.47-1.14.98-1.62,1.52s-.96,1.14-1.44,1.8c-.9,1.26-1.68,2.63-2.34,4.1-.66,1.47-.9,3.02-.72,4.64.06.42.27.72.63.9.36.18.72.33,1.08.45,1.26.24,2.51.21,3.74-.09s2.45-.54,3.65-.72c1.14-.18,2.27-.42,3.38-.72s2.24-.27,3.38.09c.48.12.92.5,1.31,1.13.39.63.53.98.41,1.04.06,0-.39.09-1.35.27ZM1753.51,315.52c-2.33-.95-4.75.3-7.25,3.75h.01c-1.47,1.99-1.82,3.07-1.04,3.24.08.08.47-.13,1.16-.65.86-.77,1.51-1.25,1.94-1.42.69-.52,1.42-.61,2.2-.26,1.21.43,1.85,1.43,1.94,2.98.26,2.24-.56,5.09-2.46,8.54-3.88,5.87-6.68,9.8-8.41,11.78-.77,1.04-1.33,1.86-1.68,2.46v.52c.43.26,1.34-.39,2.72-1.94,3.71-4.14,6.64-8.07,8.8-11.78,1.9-2.85,3.19-5.13,3.88-6.86.87-2.59,1.04-5.18.52-7.77-.26-1.21-1.04-2.07-2.33-2.59ZM1773.39,334.23l11.2,6.57,5.38-9.7-11.2-6.57-5.38,9.7ZM1705.92,333.3h-.02c-.44,0-.73.37-.88,1.11-.59,2.06-1.62,3.09-3.09,3.09-.58,0-1.1-.29-1.54-.88-.73-.88-1.1-2.64-1.1-5.29,0-3.68.96-9.2,2.87-16.55.44-1.33.66-2.21.66-2.65,0-1.18-.51-.96-1.54.66-.44.59-.81,1.4-1.1,2.43-1.91,7.79-3.02,13.01-3.31,15.66-.29,4.56.45,8.09,2.21,10.59.59.88,1.47,1.25,2.65,1.1,1.32-.15,2.43-.89,3.31-2.21.44-.73.81-2.06,1.1-3.97.29-2.06.22-3.09-.22-3.09ZM1834.99,284.13c0-.36-.43-.5-1.29-.43-16.08,1.01-32.85-.5-50.3-4.52-.06-.01-.13-.03-.19-.04.93-.51,1.68-1.03,2.24-1.57,3.52-3.38,5.28-9.05,5.28-17.02h0c0-5.1-1.4-15.76-4.2-31.99-1.58-9.99-3.26-19.97-5.06-29.95,2.08,2.01,3.34,3.27,3.77,3.77,1.65,1.87,2.77,2.59,3.34,2.16.57-.29-1.37-5.07-5.82-14.33-3.81-8.4-5.93-12.6-6.36-12.6-.14,0-.71,1.26-1.72,3.77-1.22,3.09-2.12,5.46-2.69,7.11-.28.57.22,1.43,1.51,2.58,1.22,10.34,3.73,25.93,7.54,46.75,3.37,18.38,5.06,28.76,5.06,31.13,0,1.01-4.49,2.41-13.47,4.2-8.99,1.83-13.94,3.05-14.84,3.66-.08,0-.16,0-.24,0-.65.14-1.67,1.74-3.07,4.79s-2.1,4.87-2.1,5.44.43.82,1.29.75c2.95-.28,6.93-.21,11.96.22,9.83.79,19.71,2.27,29.62,4.42-15.73,7.54-26.65,11.31-32.75,11.31-.03,0-.06,0-.09,0-2.68-.02-4.94-.95-6.79-2.8-2.59-2.8-3.27-5.6-2.05-8.4.29-.72.29-1.15,0-1.29-.65-.37-1.58.32-2.8,2.04-2.37,3.51-4.27,6.42-5.71,8.72-3.09,3.01-7.18,4.66-12.28,4.95-.39,0-.74.06-1.07.16-5.48-.06-9.85-2.44-13.14-7.13-1.51-2.01-2.91-4.02-4.2-6.03-1.3-2.01-2.77-3.02-4.42-3.02-2.52,0-5.39,1.68-8.62,5.06-3.81,4.02-7.19,9.48-10.13,16.37-5.17,12.21-9.51,18.31-13.03,18.31-3.08,0-5.8-1.87-8.13-5.6-2.33-3.73-3.5-8.47-3.5-14.22,0-2.8.29-6.03.86-9.69.43-2.23.35-3.34-.22-3.34-.79-.15-1.62,1.69-2.48,5.49-.86,4.09-1.29,8.29-1.29,12.6,0,5.6,1.54,10.73,4.63,15.4,3.09,5.17,6.62,7.75,10.13,7.75s6.6-2.51,9.26-7.54c2.23-4.96,4.35-10.02,6.36-15.19,4.31-9.27,8.97-13.9,14-13.9,1.72,0,4.51,2.53,8.35,7.59,3.72,4.91,8.24,7.43,13.54,7.58.16.08.33.13.52.13,7.4,0,13.82-4.74,19.28-14.22.65,3.59,1.58,6.07,2.8,7.43,1.93,2.21,4.47,3.4,7.62,3.55,0,0,.01,0,.02,0,0,0,0,0,0,0,0,0,0,0,0,0,0,0,0,0,.01,0,6.25,0,17.63-3.85,34.13-11.52,9.98-4.67,19.39-7.47,28.22-8.4,3.31-.36,6.04-.28,8.19.22.36.07,1.2-1.55,2.53-4.85,1.33-3.31,1.99-5.25,1.99-5.82h-.01ZM1679.78,301.8c0,.64.18,3.73.54,9.26.14,2.59.47,3.88.97,3.88.86,0,1.9-3.12,3.12-9.37.72-3.38,1.08-6.68,1.08-9.91v-.03c0-5.17-1.15-15.33-3.45-30.48-2.86-17.25-5.31-31.69-7.36-43.38.58-.08,1.37-.33,2.37-.76,3.83-1.47,6.99-2.94,9.49-4.41,4.41-2.64,7.72-5.66,9.93-9.04,1.03.59,2.13,1.33,3.31,2.21.29.29.59.51.88.66.15,0,.29-.44.44-1.32.44-1.47.73-2.43.88-2.87,0-.59-1.25-1.55-3.75-2.87,1.03-2.21,1.54-4.49,1.54-6.84,0-4.12-1.25-6.18-3.75-6.18-1.77,0-3.75,1.18-5.96,3.53-2.21,2.35-3.31,4.78-3.31,7.28,0,1.91,1.4,3.38,4.19,4.41,1.18.29,2.06.59,2.65.88-1.62,2.35-4.19,4.71-7.72,7.06-1.61,1.02-4.63,2.79-9.04,5.29-1.06.62-1.85,1.13-2.4,1.54-1.29-7.35-2.42-13.57-3.38-18.63,2.01,2.01,3.27,3.31,3.77,3.88,1.65,1.8,2.77,2.52,3.34,2.16.58-.43-1.29-5.28-5.6-14.54-3.88-8.33-6.03-12.49-6.46-12.49-.22,0-.83,1.29-1.83,3.88-1.22,3.09-2.12,5.42-2.69,7-.22.58.32,1.44,1.61,2.59,2.59,17.59,4.67,30.81,6.25,39.64,5.53,31.81,8.98,54.47,10.34,67.97ZM1689.84,198.52c0-2.06,1.25-3.09,3.75-3.09,1.77,0,2.65.96,2.65,2.87,0,1.18-.22,2.5-.66,3.97-3.83-1.76-5.74-3.01-5.74-3.75ZM1827.72,323.24c-3.97,2.35-8.75,3.53-14.34,3.53-1.47,0-3.01-.4-4.63-1.21s-2.43-1.66-2.43-2.54c0-1.91,2.14-4.34,6.4-7.28,4.71-3.53,7.06-6.99,7.06-10.37,0-1.62-2.21-2.43-6.62-2.43-3.09,0-5.15.29-6.18.88-1.47.88-2.72,2.57-3.75,5.07-.29.59-.29.95,0,1.1.29.29.66.22,1.1-.22,1.18-1.03,3.31-1.54,6.4-1.54,1.61,0,3.31.22,5.07.66-4.71,3.83-7.28,5.96-7.72,6.4-2.94,3.24-4.41,6.69-4.41,10.37,0,3.97,2.95,5.96,9.27,5.96s11.62-2.43,15.88-7.28h0c.73-.88.88-1.39.44-1.54-.29-.15-.8,0-1.54.44ZM1659.81,316.59c-1.77-2.21-3.61-3.31-5.52-3.31-2.5-.14-4.33,3.16-5.51,9.93-.73,3.68-1.32,7.35-1.76,11.03-1.03-2.06-1.84-3.9-2.43-5.52-3.97-7.65-7.72-11.4-11.25-11.25-1.92,0-2.65,1.99-2.21,5.96.15.88,1.21,1.88,3.2,2.98,1.99,1.1,3.2,1.58,3.64,1.43.29-.29.51-.59.66-.88,2.8,2.36,4.78,5.67,5.96,9.93,1.03,3.38,1.99,5.07,2.87,5.07.74.15,1.55-3.64,2.43-11.36.88-7.72,2.35-11.58,4.41-11.58,1.03,0,1.99.58,2.87,1.76.88,1.17,1.32,1.76,1.32,1.76.58,0,1.03-.89,1.32-2.65.44-1.77.44-2.87,0-3.31h0ZM1549.75,337.17h-.02c-.44.01-.73.37-.88,1.11-.59,2.06-1.62,3.09-3.09,3.09-.58,0-1.1-.29-1.54-.88-.73-.88-1.1-2.64-1.1-5.29,0-3.68.96-9.2,2.87-16.55.44-1.33.66-2.21.66-2.65,0-1.18-.51-.96-1.54.66-.44.59-.81,1.4-1.1,2.43-1.91,7.79-3.02,13.01-3.31,15.66-.29,4.56.45,8.09,2.21,10.59.59.88,1.47,1.25,2.65,1.1,1.32-.15,2.43-.89,3.31-2.21.44-.73.81-2.06,1.1-3.97.29-2.06.22-3.09-.22-3.09ZM1512.71,329.15l-5.38,9.7,11.2,6.57,5.38-9.69-11.2-6.57h0ZM1490.59,327.12c-1.77-2.21-3.61-3.31-5.52-3.31-2.5-.14-4.33,3.16-5.51,9.93-.73,3.68-1.32,7.35-1.76,11.03-1.03-2.06-1.84-3.9-2.43-5.52-3.97-7.65-7.72-11.4-11.25-11.25-1.92,0-2.65,1.99-2.21,5.96.15.88,1.21,1.88,3.2,2.98,1.99,1.1,3.2,1.58,3.64,1.43.29-.29.51-.59.66-.88,2.8,2.36,4.78,5.67,5.96,9.93,1.03,3.38,1.99,5.07,2.87,5.07.74.15,1.55-3.64,2.43-11.36.88-7.72,2.35-11.58,4.41-11.58,1.03,0,1.99.58,2.87,1.76.88,1.17,1.32,1.76,1.32,1.76.58,0,1.03-.89,1.32-2.65.44-1.77.44-2.87,0-3.31h0ZM1631.2,290.6s0,0,0,0c0,0,0,0,0,0h0ZM1617.81,330.58c-.91,0-2.58.92-5.01,2.74.3-1.01.65-2.03,1.06-3.04.51-1.62.76-3.4.76-5.32,0-2.53-1.01-3.8-3.04-3.8-.81,0-1.72.76-2.73,2.28-.71,1.12-1.06,2.03-1.06,2.74,0,.92.16,1.07.46.46.81-1.32,1.67-1.98,2.58-1.98,1.52,0,2.28,1.06,2.28,3.19,0,1.42-.86,3.7-2.58,6.84-.61,1.21-2.48,2.88-5.62,5.01-2.94.51-5.17.71-6.69.61-2.43,0-3.65.1-3.65.3,0,.3,1.01.91,3.04,1.82,2.03.91,3.24,1.37,3.65,1.37,2.73,0,5.92-.41,9.57-1.22,3.95-.81,6.84-1.78,8.66-2.89,2.43-1.62,3.65-3.6,3.65-5.93h-.01c0-2.12-1.77-3.18-5.32-3.18ZM1616.08,337.78c-2.99.96-5.49,1.55-7.52,1.75,0-.61,1.01-1.62,3.04-3.04,2.13-1.62,3.95-2.43,5.47-2.43.4,0,1.09.17,2.05.53.95.36,1.43.64,1.44.84-.01.61-1.5,1.4-4.48,2.35ZM1644.08,308.54c5.42-3.63,8.42-11.62,8.99-23.97h-.01c.5-7.32-3.16-32.81-10.99-76.47,3.52,3.37,5.64,4.78,6.36,4.2.65-.36,0-2.51-1.94-6.46-6.46-13.79-9.83-20.68-10.12-20.68s-1.17,1.72-2.64,5.17c-1.47,3.44-2.13,5.24-1.99,5.38.72,1.15,1.22,2.12,1.51,2.91.15,1.58.36,2.87.65,3.88,2.94,16.51,5.89,32.99,8.83,49.44,3.96,22.7,5.79,37.06,5.5,43.09-.14,2.01-3.73,4.28-10.77,6.79-5.32,1.79-9.95,2.98-13.9,3.55-.05,0-.09.01-.14.02,0-.01.02-.02.03-.03,5.02-5.32,7.61-10.24,7.75-14.76,0-3.59-1.48-6.93-4.42-10.01-3.81-3.66-9.16-5.49-16.05-5.49-9.62,0-20.28,6.39-31.99,19.17,1.73-3.67,2.59-9.01,2.59-16.7s-.93-18.14-2.8-31.35c-2.8-18.53-4.95-32.49-6.46-41.9,2.66,3.67,4.42,5.28,5.28,4.85.57-.43-.29-3.45-2.59-9.05-4.6-10.27-6.97-15.4-7.11-15.4-.29,0-1.31,1.68-3.07,5.06-1.75,3.38-2.56,5.14-2.42,5.28.58,1.3,1.3,2.48,2.16,3.56,2.08,13.78,4.23,27.53,6.46,41.25,3.66,23.05,5.49,39.35,5.49,48.9,0,5.17-.5,8.66-1.51,10.45-5.01,6.58-7.65,10.09-7.96,10.55,0,0,0,0,0,0h0c-4.31,0-7.57-1.68-9.8-5.06-2.59-4.02-4.63-11.34-6.14-21.97-1.29-9.48-3.62-23.84-7-43.09-6.47-37.56-9.95-56.34-10.45-56.34-.29,0-1.06,2.1-2.32,6.3-1.26,4.2-1.81,6.58-1.67,7.16,3.37,19.96,6.14,36.4,8.29,49.33,4.31,24.78,6.72,40.68,7.22,47.72.22,2.87-1.47,5.31-5.06,7.32-3.09,1.73-6.39,2.59-9.91,2.59-.07,0-.13,0-.19.01-2.64-.04-4.87-.97-6.7-2.79-2.59-2.8-3.27-5.6-2.05-8.4.29-.72.29-1.15,0-1.29-.65-.37-1.58.32-2.8,2.04-2.37,3.51-4.27,6.42-5.71,8.72-3.09,3.01-7.18,4.66-12.28,4.95-.39,0-.74.06-1.07.16-5.48-.06-9.85-2.44-13.14-7.13-1.51-2.01-2.91-4.02-4.2-6.03-1.3-2.01-2.77-3.02-4.42-3.02-2.52,0-5.39,1.68-8.62,5.06-1.93,2.04-3.75,4.45-5.46,7.23.2-.55.31-.99.31-1.32h-.01c0-5.52-1.54-10.48-4.63-14.86-2.3-3.3-4.95-4.81-7.97-4.52-3.88.35-7.32,3.26-10.34,8.72-.57-.43-.97-.65-1.18-.65-1.01,1.29-1.87,2.59-2.59,3.88-.71,1.24-1.39,2.38-2.05,3.44-.07-.05-.14-.09-.23-.09-.62-.12-1.27,1.01-1.93,3.34-1.24,1.74-2.39,3.1-3.44,4.08-2.8,2.66-6.14,3.99-10.02,3.99-.21,0-.41.02-.61.05-3.45-.19-6.72-2.13-9.78-5.88-2.8-3.45-4.95-5.17-6.68-5.17s-3.99,1.04-6.79,3.12c-6.47,4.89-9.98,12.82-10.56,23.81-2.37-3.23-3.84-7.57-4.42-13.03,3.24-2.01,5.5-4.06,6.79-6.14,4.59-6.47,6.89-14.04,6.89-22.73,0-9.41-.47-14.11-1.4-14.11-.87,1.8-1.59,3.56-2.16,5.28-1.22,2.51-2.19,4.34-2.91,5.49-3.81,6.96-7.04,14.47-9.7,22.51-1.58.5-3.2.75-4.85.75-.03,0-.06,0-.09,0-11.43-.05-18.47-8.47-21.13-25.31-.15-.86-1.62-13.43-4.42-37.7-2.08-17.52-4.63-32.53-7.65-45.02-1-4.09-2.37-8.25-4.09-12.49-1.43-3.59-2.33-5.38-2.69-5.38-.22,0-.86,1.79-1.94,5.38-1.08,3.59-1.54,5.56-1.4,5.92,5.74,11.63,11.02,41.94,15.83,90.91,2.3,22.98,10.63,34.47,24.99,34.47.06,0,.11,0,.16,0,1.62.11,3.67-.03,6.2-.44-.72,8.33.97,15.62,5.06,21.87,2.23,3.51,5.39,6.28,9.48,8.29,3.09,1.65,5.35,2.48,6.79,2.48.36,0,.79-1.58,1.29-4.74.5-3.15.68-4.81.54-4.95-7.54-7.54-11.31-13.86-11.31-18.96,0-1.93,1.18-3.96,3.55-6.08s4.52-3.18,6.46-3.18c1.72,0,4.2,1.94,7.43,5.82,3.03,3.64,6.35,5.55,9.96,5.78.17.1.36.15.58.15,5.43,0,10.19-2.54,14.3-7.57-.06,1.15-.1,2.31-.1,3.48,0,3.57.63,6.94,1.89,10.13-9.29,3.38-18.11,6.96-26.45,10.72-.36.24-.66.96-.9,2.16-.24,1.32-.24,2.22,0,2.7,4.2-2.4,11.05-5.4,20.53-9,2.82-1.05,5.64-2.09,8.46-3.14.35.62.72,1.22,1.11,1.83,3.09,5.17,6.62,7.75,10.13,7.75s6.6-2.51,9.26-7.54c2.23-4.96,4.35-10.02,6.36-15.19,4.31-9.27,8.97-13.9,14-13.9,1.72,0,4.51,2.53,8.35,7.59,3.72,4.91,8.24,7.43,13.54,7.58.16.08.33.13.52.13,7.4,0,13.82-4.74,19.28-14.22.65,3.59,1.58,6.07,2.8,7.43,1.94,2.22,4.49,3.41,7.65,3.55h0c7.61,0,13.61-3.05,17.99-9.15,1.08-1.51,1.87-3.59,2.37-6.25,1.78,14.14,7.18,21.27,16.2,21.42.06,0,.11.02.17.02,9.27,0,16.84-.43,22.73-1.29,0,0,0,0,0,0,10.37,0,20.63-.84,30.79-2.48,12.21-1.87,21.03-4.61,26.45-8.24ZM1389.83,282.42c.29,7.47.36,11.6.22,12.39h0c-.28.72-1.47,1.94-3.55,3.66-2.51,1.8-4.56,2.91-6.14,3.34,3.66-9.12,6.82-15.58,9.48-19.39ZM1447.36,293.53c1.22-.15,2.7.28,4.42,1.29,2.08,1.22,3.26,2.76,3.55,4.63h0c-1.72.08-4-.53-6.84-1.82-2.84-1.3-4.22-2.16-4.15-2.59.22-.87,1.22-1.37,3.02-1.51ZM1458.64,312.38c-5.17,12.21-9.51,18.31-13.03,18.31-2.27,0-4.34-1.02-6.21-3.05,2.95-1.09,5.89-2.19,8.84-3.28.24-.12.63-.75,1.17-1.89.54-1.14.69-1.89.45-2.25h0c-4.33,1.38-8.57,2.81-12.72,4.27-2.1-3.64-3.16-8.17-3.16-13.62,0-.94.04-1.95.11-2.98.86-1.47,1.7-3.05,2.49-4.78,3.16,2.37,7.11,4.52,11.85,6.46,4.23,1.72,7.04,2.51,8.4,2.37.96-.06,2.12-1.13,3.47-3.17-.57,1.16-1.12,2.36-1.66,3.61ZM1570.99,309.56c13.22-16.02,25.35-23.95,36.41-23.81,4.23.15,8.2,1.35,11.9,3.61s5.41,4.44,5.12,6.52h0c-.21,1.86-6.5,4.59-18.85,8.18-13.22,3.67-24.74,5.5-34.58,5.5ZM734.32,324.43c.44-1.77.44-2.87,0-3.31h.01c-1.77-2.2-3.61-3.3-5.52-3.3-2.51-.14-4.34,3.16-5.52,9.93-.73,3.68-1.32,7.35-1.76,11.03-1.03-2.06-1.84-3.9-2.43-5.52-3.97-7.65-7.72-11.4-11.25-11.25-1.92,0-2.65,1.99-2.21,5.96.15.88,1.21,1.88,3.2,2.98,1.99,1.1,3.2,1.58,3.64,1.43.29-.29.51-.59.66-.88,2.8,2.36,4.78,5.67,5.96,9.93,1.03,3.38,1.99,5.07,2.87,5.07.74.15,1.55-3.64,2.43-11.36.88-7.72,2.35-11.58,4.41-11.58,1.03,0,1.99.58,2.87,1.76.88,1.17,1.32,1.76,1.32,1.76.58,0,1.03-.89,1.32-2.65ZM617.24,277.17c0-1.18-.51-.96-1.54.66-.44.59-.81,1.4-1.1,2.43-1.91,7.79-3.02,13.01-3.31,15.66-.29,4.56.45,8.09,2.21,10.59.59.88,1.47,1.25,2.65,1.1,1.32-.15,2.43-.89,3.31-2.21.44-.73.81-2.06,1.1-3.97.29-2.06.22-3.09-.22-3.09h-.02c-.44.01-.73.37-.88,1.11-.59,2.06-1.62,3.09-3.09,3.09-.58,0-1.1-.29-1.54-.88-.73-.88-1.1-2.64-1.1-5.29,0-3.68.96-9.2,2.87-16.55.44-1.33.66-2.21.66-2.65ZM623.03,236.07c9.11-3.38,18.23-6.77,27.35-10.15.29-.15.77-.92,1.43-2.32.66-1.4.84-2.32.55-2.76-19.27,6.18-37.06,12.95-53.38,20.3-.44.3-.81,1.18-1.1,2.65-.29,1.62-.29,2.72,0,3.31,5.15-2.94,13.53-6.62,25.15-11.03ZM550.97,210.52c3.83-1.47,6.99-2.94,9.49-4.41,1.07-.64,2.08-1.31,3.02-2-.38.8-.59,1.38-.59,1.67,0,.73.58,1.03,1.76.88-.3,4.41.07,8.23,1.1,11.47.59,1.62,1.55,2.94,2.87,3.97,1.03.73,2.13,1.1,3.31,1.1,2.65,0,4.78-1.76,6.4-5.29.44-.74.88-.66,1.32.22.44,1.18,1.25,2.06,2.43,2.65,2.94,1.77,5.37,1.62,7.28-.44,1.03-1.33,1.54-3.31,1.54-5.96h-.02c0-1.76-.74-4.19-2.21-7.28-1.62-3.53-2.43-5.66-2.43-6.4-.14-1.47-.44-2.21-.88-2.21s-.95,1.25-1.54,3.75c-.15.15-.22.37-.22.66,0,.89.15,1.62.44,2.21,2.5,5.59,3.75,8.9,3.75,9.93,0,.58-.29,1.03-.88,1.32-1.76.74-3.45.22-5.07-1.54-.88-1.17-1.39-2.79-1.54-4.85,0-2.8-.22-5.15-.66-7.06-.44-1.47-.88-2.57-1.32-3.31-.58-.74-1.03-.66-1.32.22-.29,1.18-.51,1.99-.66,2.43-.15.74-.07,1.44.22,2.1.29.66.66,3.13,1.1,7.39.15,1.76-.4,3.23-1.65,4.41-1.25,1.17-2.54,1.76-3.86,1.76-2.06,0-3.35-1.03-3.86-3.09-.51-2.05-.7-5.07-.55-9.04.09-2.28-.13-3.84-.66-4.71,1.29-1.27,2.4-2.6,3.31-4,1.03.59,2.13,1.33,3.31,2.21.29.29.59.51.88.66.15,0,.29-.44.44-1.32.44-1.47.73-2.43.88-2.87h0c0-.59-1.25-1.55-3.75-2.87,1.03-2.21,1.54-4.49,1.54-6.84,0-4.12-1.25-6.18-3.75-6.18-1.77,0-3.75,1.18-5.96,3.53-2.21,2.35-3.31,4.78-3.31,7.28,0,1.91,1.4,3.38,4.19,4.41,1.18.29,2.06.59,2.65.88-1.62,2.35-4.19,4.71-7.72,7.06-1.61,1.02-4.63,2.79-9.04,5.29-2.5,1.47-3.6,2.36-3.31,2.65.29.59,1.47.44,3.53-.44ZM563.77,188.02c0-2.06,1.25-3.09,3.75-3.09,1.77,0,2.65.96,2.65,2.87h0c0,1.18-.22,2.5-.66,3.97-3.83-1.76-5.74-3.01-5.74-3.75ZM612.87,226.4c1.32-.15,2.43-.89,3.31-2.21.44-.73.81-2.06,1.1-3.97.29-2.06.22-3.09-.22-3.09h-.02c-.44.01-.73.37-.88,1.11-.59,2.06-1.62,3.09-3.09,3.09-.58,0-1.1-.29-1.54-.88-.73-.88-1.1-2.64-1.1-5.29,0-3.68.96-9.2,2.87-16.55.44-1.33.66-2.21.66-2.65,0-1.18-.51-.96-1.54.66-.44.59-.81,1.4-1.1,2.43-1.91,7.79-3.02,13.01-3.31,15.66-.29,4.56.45,8.09,2.21,10.59.59.88,1.47,1.25,2.65,1.1ZM577.51,236.15l-5.38,9.69,11.2,6.57,5.38-9.7-11.2-6.57h0ZM1196.61,341.24l11.2,6.57,5.38-9.7-11.2-6.57-5.38,9.7ZM510.4,220.27c1.47-.29,5.07-.22,10.81.22,6.03.45,9.63,1.18,10.81,2.21-8.23,3.98-14.92,7.06-20.07,9.27-.44.29-.59.66-.44,1.1.14.29.51.44,1.1.44,7.94-.59,13.83-1.77,17.65-3.53h0c1.91-.88,4.38-3.05,7.39-6.51,3.01-3.45,4.52-6.21,4.52-8.27,0-1.91-1.1-3.16-3.31-3.75-8.97-2.65-16.32-3.39-22.06-2.21-2.94,3.39-5.44,6.69-7.5,9.93-.44.59-.51.95-.22,1.1.29.15.73.15,1.32,0ZM549.96,271.49c1.99,1.1,3.2,1.58,3.64,1.43.29-.29.51-.59.66-.88,2.8,2.36,4.78,5.67,5.96,9.93,1.03,3.38,1.99,5.07,2.87,5.07.74.15,1.55-3.64,2.43-11.36.88-7.72,2.35-11.58,4.41-11.58,1.03,0,1.99.58,2.87,1.76.88,1.17,1.32,1.76,1.32,1.76.58,0,1.03-.89,1.32-2.65.44-1.77.44-2.87,0-3.31h.01c-1.77-2.2-3.61-3.3-5.52-3.3-2.51-.14-4.34,3.16-5.52,9.93-.73,3.68-1.32,7.35-1.76,11.03-1.03-2.06-1.84-3.9-2.43-5.52-3.97-7.65-7.72-11.4-11.25-11.25-1.92,0-2.65,1.99-2.21,5.96.15.88,1.21,1.88,3.2,2.98ZM669.45,230.5c-.21,1.15-.21,1.94,0,2.36,3.67-2.1,9.66-4.73,17.96-7.88,6.51-2.42,13.03-4.83,19.54-7.25.21-.1.55-.65,1.02-1.65.47-1,.6-1.65.39-1.97-13.76,4.42-26.46,9.25-38.12,14.5-.32.21-.58.84-.79,1.89ZM671.65,202.78c0,1.57-.18,2.92-.56,4.05-1.05,2.71-1.58,5.29-1.58,7.77,0,1.35.33,2.51,1.01,3.49.53.9,1.09,1.35,1.69,1.35,1.65,0,2.48-1.35,2.48-4.05h.01c0-1.13-.11-1.69-.34-1.69-.3,0-.45.3-.45.9,0,1.43-.53,2.14-1.58,2.14s-1.58-.9-1.58-2.7c0-2.02.56-4.42,1.69-7.2.37-1.13.56-2.74.56-4.84,0-3.68-.93-7.17-2.81-10.47-.53-.9-.9-1.35-1.13-1.35-.15,0-.36.43-.62,1.29s-.39,1.4-.39,1.63.15.49.45.79c2.1,2.32,3.15,5.29,3.15,8.89ZM741.16,248.76c0-1.18-.51-.96-1.54.66-.44.59-.81,1.4-1.1,2.43-1.91,7.79-3.02,13.01-3.31,15.66-.29,4.56.45,8.09,2.21,10.59.59.88,1.47,1.25,2.65,1.1,1.32-.15,2.43-.89,3.31-2.21.44-.73.81-2.06,1.1-3.97.29-2.06.22-3.09-.22-3.09h-.02c-.44,0-.73.37-.88,1.11-.59,2.06-1.62,3.09-3.09,3.09-.58,0-1.1-.29-1.54-.88-.73-.88-1.1-2.64-1.1-5.29,0-3.68.96-9.2,2.87-16.55.44-1.33.66-2.21.66-2.65ZM708.37,214.11h0s0,0,0,0c0,0,0,0,0,0ZM685.19,218.78c1.32-.15,2.43-.89,3.31-2.21.44-.73.81-2.06,1.1-3.97.29-2.06.22-3.09-.22-3.09h-.02c-.44,0-.73.37-.88,1.11-.59,2.06-1.62,3.09-3.09,3.09-.58,0-1.1-.29-1.54-.88-.73-.88-1.1-2.64-1.1-5.29,0-3.68.96-9.2,2.87-16.55.44-1.33.66-2.21.66-2.65,0-1.18-.51-.96-1.54.66-.44.59-.81,1.4-1.1,2.43-1.91,7.79-3.02,13.01-3.31,15.66-.29,4.56.45,8.09,2.21,10.59.59.88,1.47,1.25,2.65,1.1ZM695.67,246.27l5.39-9.7-11.2-6.57-5.39,9.7,11.2,6.57ZM547.11,332.48c1.32-.15,2.43-.89,3.31-2.21.44-.73.81-2.06,1.1-3.97.29-2.06.22-3.09-.22-3.09h-.02c-.44.01-.73.37-.88,1.11-.59,2.06-1.62,3.09-3.09,3.09-.58,0-1.1-.29-1.54-.88-.73-.88-1.1-2.64-1.1-5.29,0-3.68.96-9.2,2.87-16.55.44-1.33.66-2.21.66-2.65,0-1.18-.51-.96-1.54.66-.44.59-.81,1.4-1.1,2.43-1.91,7.79-3.02,13.01-3.31,15.66-.29,4.56.45,8.09,2.21,10.59.59.88,1.47,1.25,2.65,1.1ZM646.65,295.05c0-3.23-1.4-7.39-4.2-12.49-3.09-5.75-4.77-9.23-5.06-10.45,3.23,1.51,5.06,2.12,5.49,1.83.43-.43-2.23-3.73-7.97-9.91-2.22-2.51-3.41-3.77-3.55-3.77-.43,0-.93,1.68-1.51,5.06-.57,3.09-.86,4.99-.86,5.71s.36,1.26,1.08,1.62c1.01,4.1,2.77,8.73,5.28,13.9,4.74,9.41,7.11,14.33,7.11,14.76,0,1.58-5.39,5.78-16.16,12.6-11.34,7.03-23.27,13.42-35.76,19.17-3.98,1.78-8.57,3.72-13.73,5.81,3.97-3.64,7.28-7.33,9.86-11.09,2.49-3.65,3.77-9.3,3.86-16.88,4.61-2.04,8.03-4.29,10.25-6.76,2.95-3.27,4.42-7.88,4.42-13.84h0c0-3.59-2.48-9.94-7.43-19.06,2.8.5,4.28.5,4.42,0,.21-.65-1.13-2.59-4.04-5.82-2.91-3.23-4.62-4.85-5.12-4.85-.28,0-.81,1.49-1.56,4.47-.75,2.98-1.13,4.72-1.13,5.22s.39,1.15,1.18,1.94c1.23,4.31,3.34,9.15,6.36,14.54,2.59,4.6,3.88,7.33,3.88,8.19,0,1.15-2.15,2.62-6.46,4.42-2.45,1.05-4.74,1.88-6.88,2.51-1.11-2.63-2.16-4.47-3.15-5.53-4.09-4.45-7.64-6.68-10.66-6.68-3.59,0-6.79,2.09-9.59,6.25-2.44,3.67-3.66,7.33-3.66,10.99,0,5.81,3.81,8.72,11.42,8.72,4.24,0,8.55-.93,12.93-2.8.93,1.29,1.4,2.87,1.4,4.74,0,2.87-5.17,8.19-15.51,15.94-11.42,8.47-21.04,12.71-28.87,12.71-5.6,0-10.02-1.87-13.25-5.6-3.23-3.74-4.85-8.37-4.85-13.9,0-1.46.1-2.94.26-4.43,4.99-3.29,8.21-5.77,9.66-7.42,4.88-5.82,7.32-12.39,7.32-19.71,0-3.3-1.36-7.5-4.09-12.6-3.08-5.74-4.74-9.19-4.95-10.34,3.23,1.43,5.02,1.97,5.38,1.61.44-.43-2.15-3.73-7.75-9.91-2.3-2.51-3.56-3.77-3.77-3.77-.43,0-.97,1.72-1.62,5.17-.57,3.09-.86,5.03-.86,5.82,0,.65.36,1.15,1.08,1.51,1.07,4.1,2.9,8.69,5.49,13.79,4.74,9.48,7.11,14.4,7.11,14.76,0,1.72-5.39,5.92-16.16,12.6-11.42,7.1-23.38,13.5-35.87,19.17l-6.03,13.46c6.89-2.22,17.27-7.39,31.13-15.51,4.22-2.5,7.88-4.74,11.01-6.74-.6,3.16-.9,6.27-.9,9.32,0,6.97,1.62,12.57,4.85,16.81,3.67,4.67,8.55,7,15.73,7,5.81,0,12.49-2.33,20.04-6.98,15-2.52,22.6-3.78,22.73-3.78,6.89-2.23,17.27-7.47,31.13-15.73,13.21-7.75,21.08-13.03,23.59-15.83,5.03-5.89,7.54-12.53,7.54-19.93h-.02ZM579.56,304.55c-1.73.36-3.81.54-6.25.54-3.37,0-5.06-.72-5.06-2.16,0-.65.45-1.29,1.35-1.94.9-.65,1.63-.97,2.21-.97,2.58,0,5.16,1.5,7.75,4.52h0ZM843.94,325.96l-11.2-6.57h-.01l-4.52,8.08-10.99-6.46-5.38,9.69,11.2,6.57,4.52-8.08,10.99,6.46,5.39-9.69ZM875.25,342.87c-.44.3-.81,1.18-1.1,2.65-.29,1.62-.29,2.72,0,3.31,5.15-2.94,13.53-6.62,25.15-11.03,9.11-3.38,18.23-6.77,27.35-10.15.29-.15.77-.92,1.43-2.32.66-1.4.84-2.32.55-2.76-19.27,6.18-37.06,12.95-53.38,20.3ZM928.63,322.57s0,0,0,0c0,0,0,0,0,0h-.01ZM1131.18,337.53h-.02c-.44.01-.73.37-.88,1.11-.59,2.06-1.62,3.09-3.09,3.09-.58,0-1.1-.29-1.54-.88-.73-.88-1.1-2.64-1.1-5.29,0-3.68.96-9.2,2.87-16.55.44-1.33.66-2.21.66-2.65,0-1.18-.51-.96-1.54.66-.44.59-.81,1.4-1.1,2.43-1.91,7.79-3.02,13.01-3.31,15.66-.29,4.56.45,8.09,2.21,10.59.59.88,1.47,1.25,2.65,1.1,1.32-.15,2.43-.89,3.31-2.21.44-.73.81-2.06,1.1-3.97.29-2.06.22-3.09-.22-3.09ZM962.65,316.54c-1.77-2.21-3.61-3.31-5.52-3.31-2.51-.14-4.34,3.16-5.52,9.93-.73,3.68-1.32,7.35-1.76,11.03-1.03-2.06-1.84-3.9-2.43-5.52-3.97-7.65-7.72-11.4-11.25-11.25-1.92,0-2.65,1.99-2.21,5.96.15.88,1.21,1.88,3.2,2.98,1.99,1.1,3.2,1.58,3.64,1.43.29-.29.51-.59.66-.88,2.8,2.36,4.78,5.67,5.96,9.93,1.03,3.38,1.99,5.07,2.87,5.07.74.15,1.55-3.64,2.43-11.36.88-7.72,2.35-11.58,4.41-11.58,1.03,0,1.99.58,2.87,1.76.88,1.17,1.32,1.76,1.32,1.76.58,0,1.03-.89,1.32-2.65.44-1.77.44-2.87,0-3.31h.01ZM928.71,275.37c-3.08-5.74-4.74-9.19-4.95-10.34,3.23,1.43,5.02,1.97,5.38,1.61.44-.43-2.15-3.73-7.75-9.91-2.3-2.51-3.56-3.77-3.77-3.77-.43,0-.97,1.72-1.62,5.17-.57,3.09-.86,5.03-.86,5.82,0,.65.36,1.15,1.08,1.51,1.07,4.1,2.9,8.69,5.49,13.79,4.74,9.48,7.11,14.4,7.11,14.76,0,1.72-5.39,5.92-16.16,12.6-11.42,7.1-23.38,13.5-35.87,19.17-8.76,4.02-20.54,8.76-35.33,14.22-8.4,3.16-12.6,4.99-12.6,5.49,0,.15.28.22.86.22,1.36,0,5.74-.61,13.14-1.83,18.39-3.01,27.69-4.56,27.9-4.63,6.89-2.22,17.27-7.39,31.13-15.51,13.21-7.83,21.08-13.18,23.59-16.05,4.88-5.82,7.32-12.39,7.32-19.71h0c0-3.31-1.36-7.51-4.09-12.61ZM692.04,340.89h-.02c-.44,0-.73.37-.88,1.11-.59,2.06-1.62,3.09-3.09,3.09-.58,0-1.1-.29-1.54-.88-.73-.88-1.1-2.64-1.1-5.29,0-3.68.96-9.2,2.87-16.55.18-.53.31-.97.41-1.36,9.43-.61,16.33-3.66,20.67-9.15,3.23-3.95,4.85-9.16,4.85-15.62h0c0-6.46-2.51-12.77-7.54-18.95-4.09-5.17-8.15-7.76-12.17-7.76-3.09,0-5.92,1.62-8.51,4.85-3.09,3.66-4.63,7.94-4.63,12.82,0,6.46,3.16,9.69,9.48,9.69-.15,0,2.47-.29,7.86-.86h2.91c5.75,0,8.62,1.54,8.62,4.63,0,1.58-1.83,3.48-5.49,5.71-4.76,2.73-10.29,4.12-16.56,4.19-.14-.06-.29-.1-.46-.1h0c-8.25.01-13.67-7.81-16.26-23.47-.72-4.02-2.7-18.35-5.93-42.98-2.22-17.38-4.74-31.6-7.54-42.66-1-3.95-2.33-7.9-3.98-11.85-1.37-3.52-2.19-5.28-2.48-5.28-.22,0-.77,1.72-1.67,5.17-.25.97-.46,1.81-.63,2.53-1.41-1.35-2.86-2.03-4.35-2.03-2.51-.14-4.34,3.16-5.52,9.93-.73,3.68-1.32,7.35-1.76,11.03-1.03-2.06-1.84-3.9-2.43-5.52-3.97-7.65-7.72-11.4-11.25-11.25-1.92,0-2.65,1.99-2.21,5.96.15.88,1.21,1.88,3.2,2.98,1.99,1.1,3.2,1.58,3.64,1.43.29-.29.51-.59.66-.88,2.8,2.36,4.78,5.67,5.96,9.93,1.03,3.38,1.99,5.07,2.87,5.07.74.15,1.55-3.64,2.43-11.36.88-7.72,2.35-11.58,4.41-11.58,1.03,0,1.99.58,2.87,1.76.88,1.17,1.32,1.76,1.32,1.76.35,0,.64-.32.89-.95,3.88,10.49,7.39,27.57,10.51,51.3l4.85,38.99c2.66,21.83,9.26,32.74,19.82,32.74.34,0,.65-.04.95-.12.3,0,.6,0,.89-.02-.25.48-.48,1.05-.66,1.71-1.91,7.79-3.02,13.01-3.31,15.66-.29,4.56.45,8.09,2.21,10.59.59.88,1.47,1.25,2.65,1.1,1.32-.15,2.43-.89,3.31-2.21.44-.73.81-2.06,1.1-3.97.29-2.06.22-3.09-.22-3.09ZM699.88,284.93c-8.11,1.51-12.17,1.22-12.17-.86,0-2.23,1.76-3.34,5.28-3.34,2.51,0,4.81,1.4,6.89,4.2h0ZM670.89,323.79c-1.77-2.21-3.61-3.31-5.52-3.31-2.51-.14-4.34,3.16-5.52,9.93-.73,3.68-1.32,7.35-1.76,11.03-1.03-2.06-1.84-3.9-2.43-5.52-3.97-7.65-7.72-11.4-11.25-11.25-1.92,0-2.65,1.99-2.21,5.96.15.88,1.21,1.88,3.2,2.98,1.99,1.1,3.2,1.58,3.64,1.43.29-.29.51-.59.66-.88,2.8,2.36,4.78,5.67,5.96,9.93,1.03,3.38,1.99,5.07,2.87,5.07.74.15,1.55-3.64,2.43-11.36.88-7.72,2.35-11.58,4.41-11.58,1.03,0,1.99.58,2.87,1.76.88,1.17,1.32,1.76,1.32,1.76.58,0,1.03-.89,1.32-2.65.44-1.77.44-2.87,0-3.31h.01ZM817.64,338.66c-.29-.15-.8,0-1.54.44-3.97,2.35-8.75,3.53-14.34,3.53-1.47,0-3.01-.4-4.63-1.21s-2.43-1.66-2.43-2.54c0-1.91,2.14-4.34,6.4-7.28,4.71-3.53,7.06-6.99,7.06-10.37,0-1.62-2.21-2.43-6.62-2.43-1.63,0-2.97.08-4.03.25,4.67-1.78,10.01-4.07,16.05-6.88,9.98-4.67,19.39-7.47,28.22-8.4,3.31-.36,6.04-.28,8.19.22.36.07,1.2-1.55,2.53-4.85,1.33-3.31,1.99-5.25,1.99-5.82h-.01c0-.37-.43-.51-1.29-.44-16.08,1.01-32.85-.5-50.3-4.52-2.01-.45-4.17-.83-6.45-1.16,5.2-3.29,9.91-7.73,14.12-13.37,3.66-4.88,6.42-7.32,8.29-7.32,1.29,0,1.94.9,1.94,2.69,0,3.38,1.18,6.3,3.55,8.78,2.36,2.47,5.27,3.71,8.72,3.71.41,0,.79-.07,1.14-.18,4.55-.31,8.76-2.33,12.65-6.08,2.94-3.52,5.1-6.32,6.46-8.4-.14,3.23.92,6.07,3.18,8.51s5.01,3.66,8.24,3.66c2.95,0,5.82-1.04,8.62-3.12,2.51-1.8,4.2-3.7,5.06-5.71,1.79-3.37,2.83-5.38,3.12-6.03.87,6.53,4.53,9.8,10.99,9.8,7.54,0,11.31-6.21,11.31-18.63v-.02c0-2.3-.29-4.56-.86-6.79-.65-1.94-1.11-2.91-1.4-2.91s-1.02,1.48-2.21,4.42c-1.19,2.95-1.78,4.71-1.78,5.28,0,.51.38,1.23,1.13,2.16s1.13,1.87,1.13,2.8c0,1.58-1.62,2.37-4.85,2.37s-5.81-1.04-7.75-3.12c-2.02-2.3-2.59-4.63-1.73-7,.58-1.8.79-2.77.65-2.91-.72-.57-1.69.04-2.91,1.83-.72,1.15-1.44,2.83-2.16,5.06-2.94,7.47-7.42,11.2-13.89,11.2s-9.7-2.41-9.7-7.22c0-1.5.5-3.3,1.51-5.38.28-.72.21-1.15-.22-1.29-.28-.14-.86.14-1.72.86-.79.65-1.68,1.62-2.69,2.91-6.18,8.64-12.29,13.04-18.33,13.23-.13-.04-.26-.07-.41-.07l.02.02c-4.45,0-7.57-1.87-9.37-5.6-.72-1.37-1.44-4.24-2.16-8.62-.35-1.73-2.01-1.48-4.95.75-2.3,1.72-4.99,4.48-8.08,8.29-3.08,3.81-6.82,7.29-11.2,10.45-5.8,4.15-13.38,7.41-22.76,9.78-.03,0-.07,0-.1,0-.65.14-1.67,1.74-3.07,4.79-1.4,3.05-2.1,4.87-2.1,5.44s.43.82,1.29.75c2.95-.28,6.93-.21,11.96.22,9.83.79,19.71,2.27,29.62,4.42-15.73,7.54-26.65,11.31-32.75,11.31-.06,0-.12,0-.19.01-2.64-.04-4.87-.97-6.69-2.79-2.59-2.8-3.27-5.6-2.05-8.4.29-.72.29-1.15,0-1.29-.65-.37-1.58.32-2.8,2.04-2.37,3.51-4.27,6.42-5.71,8.72-3.09,3.01-7.18,4.66-12.28,4.95h.01c-11.49-.01-18.56-8.44-21.22-25.32-.15-.86-1.62-13.43-4.42-37.7-2.08-17.52-4.63-32.53-7.65-45.02-1-4.09-2.37-8.25-4.09-12.49-1.43-3.59-2.33-5.38-2.69-5.38-.22,0-.86,1.79-1.94,5.38-1.08,3.59-1.54,5.56-1.4,5.92,5.74,11.63,11.02,41.94,15.83,90.91,2.3,22.93,10.6,34.42,24.9,34.47.03,0,.06.01.09.01,7.4,0,13.82-4.74,19.28-14.22.65,3.59,1.58,6.07,2.8,7.43,1.94,2.22,4.49,3.41,7.65,3.55.15,0,.28-.01.42-.03,3.5-.09,8.48-1.29,14.98-3.63-1.24.95-2.31,2.51-3.21,4.7-.29.59-.29.95,0,1.1.29.29.66.22,1.1-.22,1.18-1.03,3.31-1.54,6.4-1.54,1.61,0,3.31.22,5.07.66-4.71,3.83-7.28,5.96-7.72,6.4-2.94,3.24-4.41,6.69-4.41,10.37,0,3.97,2.95,5.96,9.27,5.96s11.62-2.43,15.88-7.28h0c.73-.88.88-1.39.44-1.54ZM764.54,268l-5.38,9.7,11.2,6.57,5.39-9.69-11.2-6.57h-.01ZM787.89,325.61s0,0,0,0c0,0,0,0,0,0h-.01ZM734.51,345.91c-.44.3-.81,1.18-1.1,2.65-.29,1.62-.29,2.72,0,3.31,5.15-2.94,13.53-6.62,25.15-11.03,9.11-3.38,18.23-6.77,27.35-10.15.29-.15.77-.92,1.43-2.32.66-1.4.84-2.32.55-2.76-19.27,6.18-37.06,12.95-53.38,20.3Z"/>
  <g>
    <text class="st3" transform="translate(482.45 431.63)"><tspan x="0" y="0">SHAIKHUNA PARANNUR USTHAD SMARAKA </tspan></text>
    <text class="st2" transform="translate(1341.84 431.63)"><tspan x="0" y="0">MINHAJUL JANNA DARS</tspan></text>
  </g>
  <g>
    <path class="st1" d="M164.43,435.29c.54.4,1.42.19,2.54-.37,1.32-.67,2.47-1.65,3.8-2.3,2.49-1.21,4.99-2.4,7.51-3.55,4.92-2.26,9.9-4.4,14.94-6.37,10.18-4,20.64-7.36,31.33-9.71,26.95-5.93,54.7-1.2,81.95-1.18,12.95,0,25.76-2.35,38.67-3.02,26.39-1.34,52.47,6.74,76.15,17.79,4.31,2.01,8.58,4.13,12.8,6.34,1.36.71,10.21,4.29,10.21,6.03v-65.63h-6.17c-2.94,0-7.05-.71-9.69.8-1.13.64-2.01,1.86-1.94,3.16.1,1.72,1.6,3.57,3.32,3.79,1.73.21,3.56,0,5.31-.04-.02,0-.01,35.3-.01,39.04,0-.31-3.07-1.49-3.34-1.62-3.08-1.44-6.21-2.8-9.37-4.08-10.12-4.12-20.54-7.56-31.19-10.03-17.49-4.06-34.73-4.58-52.48-2.45-5.82.7-11.6,1.62-17.35,2.74-4.65.9-9.69,2.44-14.55,2.44-5.38,0-10.63-1.39-15.92-2.21-10.16-1.56-20.39-2.72-30.66-3.2-8.81-.42-17.71-.39-26.47.76-11.52,2.06-23,4.68-34.27,7.86-5.04,1.42-10.06,2.98-14.94,4.88-4.37,1.7-8.37,4.56-13.1,5.2-.07-12.07.02-24.15-.03-36.22,0-2.85,2.35-4.95,4.84-5.88.91-.33,2.12-.67,2.66-1.55.37-.61.73-2.78.07-3.23-.32-.22-.73-.22-1.11-.22-4.06.01-8.13.08-12.19.08,0,0-2.79.6-2.53,4.02,0,9.63.27,19.27.41,28.9.13,9.04.15,18.09.21,27.13,0,1.03.22,1.64.62,1.93l-.03-.03Z"/>
    <path class="st1" d="M185.22,326.83c-.57,1.03-.89,2.19-.89,3.47v66.51c0,.65,0,1.33.33,1.89.89,1.55,3.21,1.08,4.88.44,34.27-13.25,73.82-12.22,107.36,2.8,1.9.85,3.84,1.76,5.92,1.82,2.2.06,4.3-.83,6.34-1.67,35.88-14.72,77.32-15.33,113.62-1.68,0-25.65,0-51.29.01-76.94-4.34-.89-8.86-.93-13.22-.11-1.72.32-3.59.9-4.46,2.41-1.16,2.01.14,4.73,2.17,5.86s4.48,1.09,6.79.92v53.59c-35.5-10.33-75.08-5.79-107.31,12.32-.96.54-1.97,1.1-3.07,1.09-1.08-.02-2.06-.59-2.99-1.14-31.66-18.56-70.92-20.69-106.79-12.95-.07-15.9-.14-31.81-.21-47.71,0-1.96.18-4.3,1.87-5.29,1.16-.68,2.64-.46,3.89-.95,3.66-1.42,2.22-7.63-1.47-8.96-4.64-1.67-10.56.25-12.77,4.28h0Z"/>
    <path class="st1" d="M207.62,299.73c-.07.29-.11.61-.11.96.05,12.92.02,25.84.02,38.77v19.87c0,2.88-.7,6.77,0,9.55.65,2.57,0,1.73,2.02,2.23,4.67,1.15,9.65.16,14.37-.05,19.35-.86,41.31,3.89,58.89,12,0,0,18.42,8.23,20.74,9.95,17.73-9.04,36.35-17.97,56.34-20.36,13.17-1.58,27.03-.54,40.31-.7v-73.86c-10.29,0-19.54-.16-29.59,2.36-6.55,1.64-16.83,3.24-21.83,8.24,0,0-2.74,2.74,3.42,1.2,0,0,26.84-6.5,34.37-4.1,0,0,2.39-.51,2.56,4.27,0,17.06.03,34.12,0,51.17,0,.56-.02,1.18-.4,1.59-.35.39-.92.48-1.44.54-6.72.74-13.61.13-20.38.86-7.37.79-14.68,2.17-21.83,4.15-13.98,3.88-27.39,10.09-39.01,18.83-.54.41-1.09,1.01-1.76.96-3.63-.31-13.08-6.34-16.31-8.06-4.02-2.14-7.99-4.59-12.15-6.43-8.46-3.75-17.14-7.14-26.25-8.93s-18.72-1.28-28.2-1.28c0,0-3.76.8-3.76-6.72v-48.9c0-7.58,32.29,1.58,35.48,1.84.62.05-2.74-3.97-3.44-4.43-1.66-1.07-3.69-1.73-5.53-2.41-5-1.83-10.22-3.13-15.44-4.16-4.07-.8-19.66-4.91-21.09,1.05h0Z"/>
    <path class="st1" d="M269.2,306.89c-.22-1.46,3.93-4.62,4.83-5.3,4.99-3.78,10.66-2.75,16.23-4.53-2.09.67-6.48-41.34-16.95-37.35-4.38,1.67-8.86,3.15-13.04,5.29-2.45,1.26-10.34,4.51-9.96,7.95.08.74.48,1.4.86,2.04,3.59,5.89,7.42,11.78,10.83,17.61,2.43,4.16,6.47,9.4,7.2,14.3h0Z"/>
    <path class="st1" d="M277.92,321.13s5.33-12.76,19.91-9.3c0,0,.99-8.72-5.62-11.67,0,0-16.86-.13-20.9,9.62,0,0-.19,9.42,6.6,11.35h0Z"/>
    <path class="st1" d="M282.02,325.36s-1.99-5.64,1.15-8.08c0,0,4.42-4.94,11.99-3.01,0,0,2.63.96,3.27,2.82,0,0,5.39,13.78,11.35,22.5,0,0,3.33,2.63,2.12,7.89l.27,11.6-9.44-22.63s-4.17-4.17-4.23,1.99l13.67,25.02-22.84-17.19-7.31-20.9h0Z"/>
    <path class="st1" d="M212.7,285.95s12.31-18.83,35.9-26.51c6.74-2.66,13.44-5.45,20.1-8.31,5.4-2.32,10.78-4.7,16.08-7.25,3.78-1.82,8.62-3.06,11.61-6.17,2.32-2.42,1.5-6.18,1.5-9.4v-17.6c0,.82-2.17,2.63-2.66,3.16-2.84,3.04-6.04,5.75-9.35,8.26-9.67,7.31-20.7,12.45-31.74,17.3-5.35,2.36-10.7,4.53-15.68,7.62-5.22,3.25-10.15,6.96-15.54,9.94-.67.37-1.52.48-2.17.09-.5-.3-.81-.85-1.01-1.4-.86-2.37-.23-5.05.48-7.37,1.53-4.96,6.95-8.26,10.74-11.39,5.14-4.24,10.71-7.82,16.65-10.84,6.59-3.35,12.27-8.01,18.21-12.37,5.49-4.02,10.91-8.16,15.88-12.82,9.79-9.16,17.47-20.4,19.7-33.83.34-2.06,1.86-.72,2.16.55,5.95,25.49,27.94,40.72,48.94,53.82,8.51,5.31,18.87,10.78,25.43,18.52,1.29,1.52,2.42,3.18,3.54,4.83,2.24,3.28,4.54,6.75,4.92,10.71-13.41-6.14-26.75-12.4-39.78-19.3-11.73-6.2-24.19-12.63-34.16-21.52-1.68-1.5-2.96-3.3-4.53-4.87-1.15-1.03-1.28.64-1.28.64v26.54c12.17,5.66,24.34,11.32,36.5,16.99,10.34,4.82,20.89,9.41,30.76,15.15,7.6,4.42,16.6,10.12,19.8,18.77h2.31c.68-8.31,1.14-16.65,1.39-24.99.4-13.29.99-26.12-7.57-37.15-9.16-11.8-20.1-21.8-31.86-30.97-17.92-13.97-40.51-25.96-51.45-46.77-.87-1.66-1.91-4-3.24-5.46-.21,2.97-2.53,5.4-3.93,7.88-5.94,10.53-16.71,18.15-25.69,25.93-10.7,9.28-21.53,18.43-32.86,26.95-12.17,9.15-29.64,23.01-30.85,39.42l2.74,43.17v.05Z"/>
    <path class="st1" d="M215.56,429.69c1.49,7.28,2.23,10.93,3.72,18.21-1.5.31-2.26.47-3.76.79-1.01-4.73-1.52-7.09-2.53-11.82-1.05,5.17-1.55,7.76-2.48,12.93-1.14.26-1.7.39-2.84.65-3.11-4.24-4.7-6.34-7.92-10.53,1.16,4.69,1.74,7.04,2.9,11.74-1.49.37-2.24.56-3.73.94-1.85-7.2-2.77-10.8-4.62-18,1.77-.45,2.65-.68,4.43-1.11,3.79,4.76,5.65,7.16,9.3,11.99,1.16-5.94,1.78-8.91,3.11-14.85,1.77-.38,2.66-.57,4.43-.93h-.01Z"/>
    <path class="st1" d="M219.98,430.29c-.54-.32-.87-.78-.99-1.39s0-1.16.39-1.66c.38-.5.92-.82,1.62-.95s1.32-.04,1.85.29c.54.32.86.79.97,1.4s-.02,1.16-.4,1.66c-.38.5-.92.81-1.61.94s-1.3.04-1.84-.28h0ZM224.07,431.94c1.08,5.8,1.62,8.7,2.69,14.5-1.51.28-2.26.42-3.77.72-1.13-5.79-1.7-8.69-2.83-14.48,1.56-.3,2.34-.45,3.9-.74h.01Z"/>
    <path class="st1" d="M241.2,430.58c1.3.93,2.08,2.39,2.35,4.36.48,3.43.73,5.14,1.21,8.57-1.52.21-2.28.33-3.79.55-.49-3.22-.73-4.83-1.21-8.06-.17-1.16-.61-2-1.32-2.53s-1.59-.71-2.65-.54c-1.07.17-1.87.62-2.39,1.34s-.68,1.66-.48,2.82l1.34,8.04c-1.51.25-2.27.38-3.78.65-1.03-5.81-1.54-8.72-2.56-14.53,1.56-.28,2.35-.41,3.91-.67.12.72.18,1.09.3,1.81.41-.72,1-1.32,1.75-1.81s1.62-.81,2.59-.96c1.85-.29,3.43.04,4.72.97h0Z"/>
    <path class="st1" d="M258.4,427.49c.97.39,1.76,1.03,2.36,1.93.61.89.97,2.01,1.1,3.33.34,3.44.51,5.17.84,8.61-1.52.15-2.28.23-3.81.39-.35-3.24-.52-4.86-.87-8.1-.12-1.17-.53-2.03-1.21-2.59s-1.56-.78-2.62-.66c-1.08.12-1.89.54-2.44,1.24-.55.7-.75,1.63-.6,2.8.4,3.23.6,4.85,1,8.09-1.52.19-2.28.28-3.8.49-1.04-7.81-1.55-11.72-2.59-19.53,1.59-.21,2.38-.31,3.98-.51.33,2.7.5,4.04.83,6.74.43-.7,1.04-1.28,1.84-1.74s1.72-.75,2.75-.87c1.18-.13,2.26,0,3.23.39h.01Z"/>
    <path class="st1" d="M265.24,429.67c.52-1.2,1.3-2.16,2.32-2.87,1.03-.71,2.21-1.12,3.55-1.22,1.17-.09,2.2.06,3.11.44.9.38,1.64.9,2.2,1.54-.05-.84-.08-1.26-.13-2.1,1.59-.1,2.39-.15,3.98-.23.32,5.89.48,8.84.79,14.73-1.54.08-2.31.13-3.84.22-.05-.86-.08-1.29-.14-2.15-.45.72-1.09,1.34-1.92,1.85-.83.51-1.81.81-2.94.89-1.27.1-2.45-.13-3.55-.68-1.1-.55-2.01-1.37-2.72-2.48-.72-1.1-1.15-2.4-1.28-3.91-.14-1.49.05-2.83.57-4.04h0ZM276.05,430.54c-.41-.62-.95-1.09-1.61-1.39-.66-.3-1.35-.43-2.08-.37-.73.05-1.39.27-1.98.66-.59.38-1.05.91-1.38,1.59-.33.68-.46,1.46-.38,2.34.07.88.33,1.64.76,2.28.43.63.97,1.1,1.61,1.41.64.31,1.31.44,2,.38.71-.05,1.37-.27,1.97-.66s1.06-.92,1.39-1.59c.33-.67.46-1.46.41-2.36s-.29-1.67-.7-2.29h-.01Z"/>
    <path class="st1" d="M288.7,442.05c.06,1.63-.31,2.82-1.1,3.57s-1.94,1.16-3.46,1.23c-.67.03-1,.05-1.66.08-.07-1.27-.1-1.9-.16-3.16.43-.02.65-.03,1.08-.05.58-.03.98-.16,1.2-.39s.33-.6.3-1.09c-.31-6.87-.46-10.31-.77-17.18,1.58-.07,2.37-.1,3.95-.16.25,6.87.37,10.3.62,17.16h0ZM284.27,422.65c-.48-.4-.74-.9-.77-1.52s.18-1.15.63-1.59,1.04-.67,1.76-.7c.71-.03,1.3.16,1.77.56s.72.91.74,1.53-.19,1.15-.63,1.58-1.01.66-1.71.69c-.72.03-1.32-.15-1.8-.55h0Z"/>
    <path class="st1" d="M306.76,424.61c-.04,5.9-.06,8.85-.1,14.75-1.54-.01-2.31-.01-3.85,0v-1.86c-.49.64-1.13,1.14-1.92,1.51s-1.65.56-2.57.57c-1.18.02-2.23-.21-3.15-.68-.92-.47-1.65-1.17-2.2-2.11-.55-.94-.84-2.06-.88-3.37-.09-3.46-.14-5.19-.24-8.65,1.58-.04,2.37-.06,3.95-.09.06,3.25.09,4.87.15,8.12.02,1.17.34,2.07.96,2.69s1.44.92,2.49.91c1.06-.01,1.89-.33,2.5-.96.6-.63.91-1.53.9-2.71,0-3.25-.01-4.87-.02-8.12h3.98Z"/>
    <path class="st1" d="M314.73,419.79c-.2,7.88-.29,11.82-.49,19.7-1.53-.04-2.29-.05-3.82-.08.12-7.88.19-11.82.31-19.7,1.6.03,2.4.04,4,.08Z"/>
    <path class="st1" d="M337,422.03c-.39,5.2-.59,7.81-.99,13.01-.14,1.81-.79,3.17-1.93,4.09-1.15.92-2.61,1.32-4.41,1.21-1.82-.11-3.25-.71-4.32-1.79-1.07-1.08-1.57-2.55-1.48-4.39,1.55.07,2.32.11,3.87.2-.03.8.14,1.43.49,1.89s.88.72,1.6.76c.7.04,1.24-.14,1.63-.54s.62-.97.67-1.72c.35-5.21.52-7.81.87-13.02,1.6.11,2.41.16,4.01.29h-.01Z"/>
    <path class="st1" d="M340.94,429.56c.72-1.1,1.65-1.9,2.79-2.42,1.13-.52,2.37-.71,3.7-.58,1.16.12,2.16.44,2.98.98s1.46,1.17,1.91,1.9c.09-.84.14-1.25.24-2.09,1.59.18,2.38.27,3.96.46-.71,5.86-1.07,8.79-1.78,14.64-1.53-.19-2.3-.28-3.83-.45.1-.86.14-1.29.24-2.14-.57.63-1.31,1.13-2.22,1.48-.91.36-1.92.48-3.05.37-1.27-.13-2.39-.56-3.38-1.29s-1.74-1.7-2.25-2.91-.71-2.57-.58-4.07c.12-1.49.54-2.78,1.27-3.87h0ZM351.44,432.29c-.3-.68-.75-1.24-1.34-1.65-.6-.41-1.26-.66-1.98-.73-.73-.07-1.41.03-2.06.3-.65.28-1.19.72-1.63,1.33s-.7,1.36-.78,2.24.03,1.67.35,2.37c.31.7.76,1.25,1.34,1.67.58.41,1.21.66,1.91.73.71.07,1.4-.03,2.05-.31.66-.28,1.21-.72,1.64-1.32.44-.6.71-1.35.81-2.25s0-1.69-.3-2.38h-.01Z"/>
    <path class="st1" d="M373.22,431.64c.96,1.28,1.27,2.9.94,4.86-.57,3.41-.85,5.12-1.42,8.54-1.51-.25-2.27-.37-3.78-.61.5-3.22.76-4.83,1.26-8.05.18-1.16.02-2.1-.5-2.81-.51-.72-1.3-1.16-2.36-1.31-1.08-.16-1.97.03-2.68.56-.71.54-1.14,1.38-1.31,2.55-.45,3.23-.68,4.84-1.13,8.07-1.52-.21-2.28-.32-3.79-.51.77-5.85,1.15-8.78,1.91-14.63,1.57.21,2.36.31,3.93.53-.1.73-.15,1.09-.25,1.82.61-.56,1.35-.96,2.21-1.2.86-.24,1.78-.29,2.76-.14,1.85.28,3.26,1.07,4.22,2.34h-.01Z"/>
    <path class="st1" d="M391.6,435.02c.9,1.32,1.14,2.95.73,4.9-.71,3.39-1.07,5.08-1.78,8.47-1.5-.32-2.26-.47-3.76-.77.64-3.2.96-4.79,1.61-7.99.23-1.15.11-2.09-.38-2.83-.48-.74-1.25-1.21-2.31-1.41-1.07-.21-1.97-.06-2.71.45-.73.5-1.2,1.33-1.42,2.49-.59,3.21-.89,4.81-1.48,8.01-1.51-.28-2.26-.41-3.78-.68,1.02-5.81,1.52-8.72,2.54-14.53,1.56.27,2.35.41,3.91.7-.13.72-.2,1.08-.33,1.81.63-.53,1.39-.9,2.26-1.11.88-.2,1.8-.21,2.76-.02,1.84.36,3.22,1.21,4.12,2.52h.02Z"/>
    <path class="st1" d="M396.49,438.01c.86-.99,1.89-1.67,3.09-2.04,1.2-.37,2.46-.4,3.77-.09,1.14.27,2.1.72,2.85,1.36.75.64,1.3,1.35,1.66,2.13.2-.82.3-1.23.5-2.04,1.56.38,2.34.58,3.89.98-1.47,5.72-2.2,8.57-3.67,14.29-1.5-.39-2.25-.58-3.76-.95.21-.84.31-1.26.52-2.09-.65.55-1.45.95-2.4,1.18-.95.24-1.98.22-3.09-.04-1.25-.29-2.31-.86-3.2-1.72-.89-.86-1.51-1.92-1.86-3.18-.35-1.27-.38-2.64-.06-4.11.32-1.46.9-2.68,1.76-3.68ZM406.6,442.09c-.21-.72-.58-1.32-1.12-1.81s-1.17-.82-1.88-.98c-.71-.17-1.41-.16-2.09.03s-1.28.56-1.8,1.1c-.52.55-.87,1.25-1.07,2.12s-.18,1.66.04,2.4c.22.73.59,1.34,1.12,1.83.52.49,1.12.81,1.81.97.7.17,1.39.15,2.09-.03.69-.19,1.29-.55,1.81-1.09.51-.54.88-1.25,1.1-2.13s.22-1.68.01-2.4h-.02Z"/>
    <path class="st1" d="M314.6,363.05c11.76,3.39,25.19,3.21,35.85-3.04l.07,2.99c-4.07-1.8-8.55-2.7-13.15-3.55-2.3-.43-4.64-.86-6.99-1.41-1.67-.45-3.25-.86-4.44-2.68-2.32-4.59,2.59-7.09,6.32-7.35,5.38-.79,10.67-2.81,15.17-5.81,1.34-.99,3.69-2.71,2.77-4.36-1.59-2.13-4.69-2.57-7.18-3.75-4.83-1.87-8.07-6.64-6.71-11.93.69-2.95,2.29-5.38,4.42-7.4,3.05-2.86,6.92-4.6,9.73-7.39,2.39-2.5,3.95-6.76,1.44-9.79l.42-.52c4.18,2.68,3.47,8.91.96,12.56-3.1,5.19-12.12,8.95-10.7,15.68.57,1.31,1.67,1.83,3.15,2.45,2.22.88,4.87,1.57,7.01,3.1,7.14,4.87,4.84,12.88-2.08,16.52-5.49,3.12-11.53,5.05-17.79,5.64-1.06.11-1.78.14-2.59.49-.3.11-.34.24-.24.04.1-.26.04-.38-.05-.52-.1-.11,0,.07.31.23s.71.32,1.23.47c2.18.64,4.43,1.18,6.72,1.73,4.56,1.1,9.31,2.3,13.73,4.54l3,1.52-2.93,1.47c-11.76,5.83-25.69,5.26-37.65.72l.21-.63h0v-.02Z"/>
  </g>
  <path class="st0" d="M836.88-419.06l-8.08-8.08-8.08,8.08,8.08,8.08,8.08-8.08ZM784.41-447.97l7.85,7.85,8.08-8.08-8.08-8.08-7.85,7.85-7.85-7.85-8.08,8.08,8.08,8.08,7.85-7.85ZM926.32-359.42c1.05.92,9.54-7.36,10.55-8.52,15.54-17.84,8.1-43.92,6.5-65.75-1.14-15.54-2.5-31.07-3.18-46.63-.03-.61-.11-2.77-.87-2.95h0c-.39-.1-.82.36-1,.57-6.94,7.86-8.15,11.58-8.15,11.58-4.32,4.85-.97,14.36-.21,21.67,1.92,18.43,6.16,36.8,7.57,55.26.8,10.45.53,19.26-5.64,28-1.68,2.39-3.86,4.43-5.57,6.77h0ZM1143.26-408.32c-4.73,2.2-8.99,5.2-13.76,7.33-10.15,4.54-23.69,7.89-34.59,5.11-6.07-1.54-15-12.31-11.04-18.43,3.26-5.05,14-6.19,19.44-5.68,3.97.37,7.39,1.98,10.54,4.28,1.31.95,1.69,3.37,4.29,1.1.39-.34,3.66-4.52,3.74-4.81.42-1.59-4.37-7.34-5.75-8.45-14.78-11.94-33.73-2.06-39.97,13.92-3.37,8.64-3.94,20.51,4.54,26.45,1.28.89,2.63,1.01,3.55,2.05-6.56,1.5-14.09,2.35-20.88,1.82-1.96-.15-5.58-1.04-6.95-2.46-.8-.83-1.96-2.68-1.6-3.84.3-.94,4.33-5.39,5.31-6.85,3.62-5.4,7.32-12.12,4.03-18.59-2.9-5.7-8.97-8.13-15.1-8.23-15.68-.26-30.13,11.4-40.2,22.22-1.94,2.09-3.52,4.77-5.82,6.52,1.24-6.25-.14-12.43-.45-18.63-.4-8.08-.45-16.18-.88-24.25-.6-11.5-2.41-23.59-2.21-35.03.07-3.73,2.2-5.98,3.09-8.94.19-.63-.05-.8-.66-.66-4.59,5.81-11.56,11.75-12.34,19.52-.7,7.05.81,15.41,1.34,22.44.57,7.62.99,15.25,1.85,22.83.97,8.57,3.64,19.22,3.98,27.44.03.74.46,2.71-.57,4.58-.89,1.62-2.41,2.46-3.42,2.89-1.72-.08-5.45-.52-8.78-3.21-.69-.56-3.75-3.25-5.03-7.56-.67-2.28.04-7.65-2.84-6.14-.25.13-3.37,3.86-3.72,4.38-2.14,3.18-4.61,8.84-4.35,12.67.18,2.7,2.73,6.56,2.5,8.33-.55,4.14-12.72,15.48-16.32,18.35-11.34,9.04-24.87,15.35-38.68,19.55-15.98,4.86-34.58,9.12-51.03,2.55-4.17-1.66-12.77-7.29-13.6-11.98h-.02c-.33-1.87.24-4.52,0-6.5-.67-.04-.79,1.6-.84,2.07-1.79,16.69,23.97,25.16,36.86,27.2,24.64,3.89,48.24-1.74,67.84-17.18,9.34-7.35,17.35-16.73,20.89-28.25.47-.39,5.26,2.76,6.42,3.23,17.3,6.97,38.77-1.83,54.68-9.12,1.02-.6,5.92-4,6.45-4,1.2-.02,1.5,3.04,2.06,4.22,6.83,14.28,30.2,7.85,41.91,3.88,16.47-5.58,31.22-15.59,48.15-19.38,1.46-3.4,3.88-6.76,5.41-10.07,1.13-2.44,3.01-6.17,2.53-8.69h0ZM1052.63-396.21c-13.66,10.96-24.88,13.77-24.88,13.77-13.01,3.26-24.65,2.45-32.78,1.03,7.89-8.01,17.31-15.73,27.37-20.87,8.56-4.38,20.58-9,28.99-2.28h0c5.81,4.66,1.95,7.83,1.3,8.35h0ZM879.41-389.03c.48,0,1.44,4.88,1.8,5.82,5.97,15.49,31,10.79,37.99-1.49,4.01-7.06,3.15-17.28,2.61-25.2-1.14-16.59-3.76-33.19-4.48-49.82-.12-2.88.56-5.64,0-8.29h0c-.69.46-1.66,1.17-2.77,2.09,0,0-4.01,3.33-6.69,7.14-2.91,4.14-1.26,10.56.09,21.44,1.26,10.12,2.89,20.48,4.49,30.52.79,4.94,2.26,9.84,2.59,14.8-1.61.89-3.77,1.87-6.43,2.55-4.16,1.06-7.75.9-10.09.61-.76.03-5.68.15-8.28-3.34-.39-.53-.8-1.23-1.1-2.16,4.1-.9,8.2-1.81,12.3-2.72,2.16-4.2,4.31-8.4,6.47-12.6-8.06,1.09-15.78-2.28-22.97-5.53-6.85-3.09-13.65-7.4-21.06-9-5.2-1.13-12.83-1.38-16.27,3.34-1.08,1.47-5.52,11.93-4.76,12.98,11.97-2.77,24.59,2.13,35.89,5.84.35.48-4.07,2.33-4.71,2.69-12.34,6.84-14.73,8-16.86,8.72-2.33.78-5.72,1.7-10.09,2.07-1.37.07-3.66-.02-5.84-1.35-2.76-1.69-4.46-4.46-4.86-6.36-.31-1.47-1.44-6.47-2.89-6.45-.16,0-.33.06-.52.22-1.89,5.76-8.43,13.03-15.03,12.56-12.12-.86-9.52-19.11-10.11-27.14-1.09-14.87-12.35-18.77-25.2-13.18-10.7,4.66-25.41,19.89-32.98,28.82-3.45,4.07-6.62,8.42-9.58,12.85.34.28,2.25-.87,2.66-1.15,9.54-6.5,16.96-15.77,27.83-21.53,5.67-3.01,17.36-7.29,23.13-3.35,12.9,8.8,2.78,29.53,15.05,37.9,3.67,2.51,12.88,2.57,16.03-.76.58-.6,1.76-2.58,2.34-3.25.53-.6,2.91-3.36,3.38-3.37.59.85.68,1.93,1.21,2.84,6.31,10.84,16.53,9,26.35,4.97l21.36-12.73h0ZM870.59-360.75l8.08-8.08-8.08-8.08-8.08,8.08,8.08,8.08Z"/>
</svg>