<?xml version="1.0" encoding="UTF-8"?>
<svg id="Layer_1" xmlns="http://www.w3.org/2000/svg" version="1.1" viewBox="0 0 1080 1080">
  <!-- Generator: Adobe Illustrator 30.1.0, SVG Export Plug-In . SVG Version: 2.1.1 Build 136)  -->
  <g>
    <polygon points="593.36 359.33 593.38 380.41 571.68 380.31 571.66 359.48 593.36 359.33"/>
    <polygon points="550.47 422.61 508.45 422.74 508.14 449.7 486.58 460.62 486.49 422.93 465.44 422.61 465.31 380.52 444.46 380.26 444.44 359.34 486.47 359.35 486.65 401.43 529.39 401.31 529.29 380.61 508.3 380.22 508.42 359.35 550.49 359.36 550.47 422.61"/>
    <path d="M465.44,422.61l-.13,57.84c-5.84,8.62-11.46,16.99-15.05,26.9l-5.83,1.39-.42,41.72-21.25-.07-.3-20.93-20.97-.04-.02-21.09,20.99-.09.08-21.71,21.74-.12v-20.84s-21.68-.11-21.68-.11l-.06-21.02-21.06-.05-.03-21.81,20.96-.04.42-20.85,21.35-.09.33,20.95,20.92.06Z"/>
    <polygon points="954.62 763.45 933.5 763.45 933.61 742.48 954.53 742.36 954.62 763.45"/>
    <polygon points="380.43 848.46 380.42 827.39 422.41 827.37 422.58 848.45 380.43 848.46"/>
    <polygon points="359.34 444.4 359.41 486.57 380.36 486.36 380.42 444.39 401.49 444.39 401.8 465.41 422.61 465.46 422.55 486.53 401.65 486.65 401.48 508.33 380.44 508.42 380.43 529.41 359.54 529.33 359.16 508.61 337.66 507.92 337.56 444.43 359.34 444.4"/>
    <path d="M678.4,422.61l-20.96-.24-.54-20.89-42.31.1-.33,42.72-40.29.15c-1.14,0-2.7,2.7-2.91,3.48l-20.51-3.92-.07-21.4,42.69-.05.22-42.15,21.03-.32.06-20.76,20.88-.11.3-21.36,21.51-.58.23-20.72,20.95.04.07,42.4-21.06.54-.03,41.86,20.96.26.13,20.95Z"/>
    <polygon points="508.29 316.46 508.05 337.55 486.64 337.43 486.53 316.47 508.29 316.46"/>
    <path d="M763.43,869.53v42.9s-42.86.03-42.86.03l-.04-21.08-21.02.03-.05,21.03h-20.95s-.28,20.93-.28,20.93l-20.8.18-.22-42.02-21.64.06-.07,62.87,21.51.45.4,18.59c.02,1.17-2.72,3.04-4.16,3.01l-17.51-.32-.4-21.6-20.91.02.1-84.96,20.98-.21v-42.01s-20.91.04-20.91.04l-.28,20.66-21.03.12.16-42.65,84.74.05v42.7s-20.95.32-20.95.32l.23,20.89,105.94-.02Z"/>
    <polygon points="444.38 316.46 444.28 337.28 422.73 337.94 422.53 380.19 401.57 380.67 401.46 422.58 380.46 422.88 380.42 444.39 359.34 444.4 359.3 380.42 380.36 380.07 380.5 337.74 401.47 337.42 401.49 316.47 444.38 316.46"/>
    <polygon points="380.43 848.46 380.42 869.54 359.39 869.51 359.39 848.51 380.43 848.46"/>
    <polygon points="486.52 848.47 486.48 869.52 465.48 869.52 465.46 848.46 486.52 848.47"/>
    <polygon points="848.47 508.3 827.42 508.33 827.48 486.62 848.35 486.64 848.47 508.3"/>
    <path d="M827.4,699.47l-.03,20.99-21.09.41.12,42.64,20.92-.25.08-42.71,20.95.19.25,63.73h20.75s.57-20.99.57-20.99l63.57-.03.14,20.94,20.9.1.08-21.04,21.74.17v63.57s-21.79.26-21.79.26l-.06-21.15-42.08.11-.02,20.99-21.05.07.04,20.97,21.06.08-.07,21-20.96.17.02,21.59,20.93-.22.04-21.48,21.07-.1-.08-20.87-20.97-.15.08-21.1h42.06s.14,20.87.14,20.87l21.64.5v84.48s-21.61.62-21.61.62l-.28,42.51-41.96-.12-.12-21.75-20.88.28-.17,17.95c-.02,1.7-1.83,3.77-3.74,3.77l-39.05-.17.17-42.82,63.49.05.27,21.11,20.96-.13.07-42.02,21.07-.21-.07-20.94-20.91.13-.13,20.96-63.7-.05-.41-21.02h-41.92s-.18,41.92-.18,41.92l-20.97.36.03,20.77,20.73.48.12,21.43-42.65-.17-.05-42.67,21.1-.04-.02-41.94-20.93-.46-.33-21.38-20.89-.14v-42.01s20.97-.33,20.97-.33l.09-20.71-21-.46-.06-21.52h21.01s.14-84.91.14-84.91l42.82-.12ZM869.56,806.3h-63.24v63.24h63.24v-63.24Z"/>
    <path d="M891.36,337.52l-.14-20.93-21.69-.12.21-20.88,19.09-.37c.85-.02,2.45-2.25,2.46-3.13l.22-18.24c7.61-.38,13.7-.38,20.84.3l.16,42.13,20.94.4-.12,20.89-41.97-.06Z"/>
    <path d="M763.43,784.5l-20.94.12-.11,17.03c-.01,2.18-1.31,4.86-3.71,4.79l-17.78-.46-.57-21.31-20.53-.26-.32-20.97,63.9.13.06,20.92Z"/>
    <path d="M869.54,316.48v21.05s-20.93.31-20.93.31l-.33,21.49-42.3-.14-.47-18.77c-.03-1.2,2.67-2.89,3.86-2.89l17.86-.06.32-63.84,20.83.1.17,42.4,21,.35Z"/>
    <path d="M699.47,763.44l-21.03-.03-.18,20.95-20.8.21-.22-20.89,21.12-.38.08-42.54,21-.35v-20.94s63.77.02,63.77.02l.11,21-20.84.22-.12,17.94c0,1.14-1.56,3.66-3.05,3.66l-39.68.13-.17,21Z"/>
    <polygon points="316.46 550.49 295.39 550.47 295.4 529.43 316.36 529.53 316.46 550.49"/>
    <polygon points="401.5 529.42 401.49 550.46 380.44 550.47 380.43 529.41 401.5 529.42"/>
    <polygon points="295.39 784.49 295.4 763.44 316.35 763.58 316.46 784.48 295.39 784.49"/>
    <polygon points="167.47 550.47 167.44 571.58 146.43 571.56 146.5 550.6 167.47 550.47"/>
    <polygon points="529.42 231.45 508.29 231.43 508.29 210.34 529.42 210.35 529.42 231.45"/>
    <polygon points="210.34 550.46 210.25 571.37 188.69 571.72 188.4 593.29 167.62 593.27 167.44 571.58 188.54 571.59 188.57 550.47 210.34 550.46"/>
    <polygon points="295.39 550.47 295.41 571.58 252.5 571.61 252.5 550.49 295.39 550.47"/>
    <path d="M614.43,954.61l-.2,21.76h-84.71s-.19-42.64-.19-42.64l-42.66-.16-.23,42.63-20.92-.2-.15-42.38-20.79-.06-.41,20.98-42.44.02-.44-20.99-20.76.07-.23,42.72h-63.58c-.33-7.93-.34-14.54.17-21.72l42.34-.15.06-20.9-85.61-.17-.05-41.92,21.8-.18.13,21.08,63.57-.02.35-20.91,20.82-.34.12-21.61,41.89.07.61,21.71,63.57.07.2,20.92,21.6-.13v-63.72s21.06.31,21.06.31l.08,20.65,41.94.24.28,21.46,21.68.44v41.75s-21.74.27-21.74.27v-42.31s-21.06.24-21.06.24v41.82s20.84.19,20.84.19l.43,21,42.63.09ZM422.57,912.44l.04-21.11-20.81.06-.18,20.9,20.95.14Z"/>
    <polygon points="337.53 571.55 316.46 571.61 316.46 550.49 337.54 550.78 337.53 571.55"/>
    <polygon points="614.45 699.48 614.42 720.53 593.37 720.53 593.39 699.77 614.45 699.48"/>
    <polygon points="252.5 571.61 252.5 593.38 231.44 593.38 231.56 571.68 252.5 571.61"/>
    <path d="M359.3,380.42l-21.71.23-.03,63.78-21.02.11-.15,63.69-41.91.17-.45,20.79-21.54.35v-21.15s-20.97-.08-20.97-.08v20.96s21,.19,21,.19l-.03,21.02-42.16-.03-.28-21.04-21.39.14-.09,20.91h-21.1s-.03-20.91-.03-20.91l-42.11-.14v63.58s20.74.54,20.74.54l.58,20.8,41.83.15.13,20.77-21.02.5.1,21.18,20.9.56-.19,20.87h-41.79s-.42-20.84-.42-20.84l-20.61-.36-.6-21.27-21.44-.69.07-126.85h102.82c1.63.01,3.43-1.51,4.03-2.84l-.3-40.06-42.5.07-.3,20.95-20.88.06-.09-42.06,63.77-.21.3-42.86-21.7.27-.35,20.89-63.01.03-.23,42.82-21.62-.1.11-42.41,21.47-.44.47-20.96,41.7-.1.29-20.8,42.6-.15.22,21.02h42.11s-.04,20.99-.04,20.99l-20.91.26-.11,21.31,21.12.61-.16,20.62-20.72.3-.19,20.96,63.83-.05-.08-42.05-18.02-.02c-2.36,0-3.65-2.4-3.65-4.86l.04-38-21.04-.06-.12-20.96-20.89-.29-.1-20.87,42.14-.1-.02-42.7-21-.18-.13,21.08-20.92.1-.02-20.92,21.06-.32-.15-20.92-41.98-.09-.2,42.03-21.4.23-.4-20.92-20.79-.4-.3-20.77-20.81-.3c-.19-7.85-.2-14.31.27-21.64l41.51.07.47,21.56,21.47.27.3-21.85,62.85-.07.34-41.91,21.58-.3.21,21.19,20.84-.17v-20.83s-20.94-.12-20.94-.12l-.11-42.49-21.6-.66.17-20.74,42.37-.06.31,20.97,20.87.21.09,106.45-20.95.5.27,20.81,42.44.18v63.82ZM295.28,295.43l.04-21-20.96-.12-.03,20.83,20.95.29ZM316.33,401.55l-21.02-.06.14-20.94,20.84-.31.27-20.77,20.89-.3-.07-21.57h-41.74s-.59,21.65-.59,21.65l-20.74.18v42.03s21.07,0,21.07,0l.06,21.09h21.01s-.12-21-.12-21Z"/>
    <path d="M316.46,571.61l.14,21.66h20.86s.07-21.72.07-21.72l42.64.09.49,21.51,20.95.46-.36,20.72-20.71.29-.15,20.9-20.99.06-.24-21.1h-63.6s-.19,21-.19,21l63.99.11.04,42.65,21.01-.23v-42.43s84.8-.06,84.8-.06l.37-21-42.79-.12-.31-39.08c-.01-1.64,2.2-3.93,3.68-3.89l17.9.5.58,21.24,13.33.31c8.07,9.77,7.46,8.29,7.59,20.95,13.76-.25,10.21.5,21.05,8.79l-.16,33.94-20.93.47-.21,20.67-20.77.19-.35,42.07-21.44-.08-.28-20.95-20.76.05-.37,42.8-105.98.02.11-21.71,84.7-.17c.33-7.64.34-14-.16-20.95l-42.26-.16-.31-20.86-20.78-.29-.31-20.91-20.88.23-.22,41.83-20.93.18.07,42.63,21.01.22.02,21.02-21.05.03v20.99s21.04.04,21.04.04v63.9s21.05.07,21.05.07l.16-21.03,20.99.08-.11,20.93-21.01.02-.03,42.55-21.02.32-.17-21.54-21.61-.48-.05-62.92-81.13-.09c-2.08,0-3.92-1.79-3.92-3.74l.05-39.13h-21.09s-.08,21.02-.08,21.02l-21.03.09.07,18.16c0,1.53-2.16,3.81-3.72,3.77l-17.42-.46.12-21.38,20.88-.16.17-20.94,20.99-.12v-42.81s-63.75-.08-63.75-.08v-21.03s63.55,0,63.55,0l.32,21.02,20.88.22.17,42.82,21.57-.27.17-20.76,41.97-.3.06-21.43-21.03-.48.2-20.7,20.74-.21.31-20.97,20.86-.18.11-20.86-21.04-.04-.06,21.09-42-.1-.12-20.93,42.12-.29v-21.62s21.07-.03,21.07-.03v-20.97s-21.06-.06-21.06-.06v-21.08s42.82-.19,42.82-.19l.09-21.61,21.05.03ZM422.57,678.31l-.02-20.94h-20.78s-.16,20.91-.16,20.91l20.96.02ZM252.57,784.5l-.17-20.95-20.71-.12-.15,20.97,21.03.1Z"/>
    <polygon points="486.53 146.42 486.53 167.47 465.59 167.36 465.46 146.41 486.53 146.42"/>
    <polygon points="231.44 593.38 231.76 614.39 252.5 614.46 252.5 635.51 210.34 635.45 210.37 593.44 231.44 593.38"/>
    <polygon points="720.57 912.45 720.56 933.47 699.6 933.39 699.47 912.44 720.57 912.45"/>
    <path d="M742.33,614.42l.09,20.99,42.11.32-.08,42.62-41.88.03-.41-20.91-16.87-.09c-2.41-.01-4.72-1.33-4.73-3.71l-.06-17.88-21.04-.3.16-42.1h20.85s.27,20.93.27,20.93l21.59.09Z"/>
    <polygon points="784.5 933.49 763.47 933.52 763.36 976.21 742.41 976.27 742.33 933.84 763.43 933.42 763.43 912.42 784.47 912.46 784.5 933.49"/>
    <path d="M614.45,614.45v21.06s-42.26-.03-42.26-.03c12.83-4.91,23.98-10.79,34.51-19.91,1.49-1.29,5.79-1.13,7.75-1.12Z"/>
    <path d="M614.47,359.33h-21.1s.05-17.07.05-17.07c0-1.68-1.26-4.57-2.71-4.6l-18.95-.3-.33-20.86-63.13-.04-.06-20.95-21.39-.12-.32,21.08h-42.14s-.1-20.93-.1-20.93l-17-.14c-2.45-.02-4.7-1.21-4.71-3.77l-.03-17.33-21.01.12-.04,42.05h-20.78s-.45-20.76-.45-20.76l-20.84-.57v-21.37s20.95-.32,20.95-.32l.05-20.93-21.06-.09-.04-41.81,21.01-.1.17,42.06,20.89-.14.27-20.84,20.79-.16.28,42.18,42.63-.05.11-21.01-21.04-.12-.15-41.93-42.7-.33-.09-21.49-21.04-.22.06-20.87,20.75-.13.29,21.07,84.72.05.31,21.45-21.11.51v41.99s20.95-.09,20.95-.09l.29-20.87,21.58-.15v42.17s21.12,0,21.12,0v-42.16s21.02.16,21.02.16l.13,41.93,20.92.09.2-41.99,21.41-.22.38,20.96,20.94-.09.04-84.83,21.04.03.17,20.95,21.29.14c.49-7.12.45-12.83-.1-20.88l-21.31-.31-.04-20.94h-20.78s-.35,21.05-.35,21.05l-20.92-.09-.16-41.98-42.58-.13-.37,20.96-20.61.15-.43-21.07-20.77.06-.45,20.79-21.53.22v-21.02s-21.02,0-21.02,0l-.05,21.02-84.78-.03-.37-21.02-20.76-.04-.55,21.09-42.48-.07-.02-42.68,20.8-.07.61,21.41,21.26.08.36-21.46h20.74s.21,21.56.21,21.56l60.02.2c1.37,0,3.75-1.69,3.77-3.01l.37-18.84,84.68.08.13,21.31,20.86.16.42-21.54,63.59.1.31,21.56,20.57.11.59-21.66,21.2.17.6,21.35,20.78.27.04,169.62-21.02.11-.1-84.52c-7.83-.38-14.53-.42-21.7.23l-.09,63.24-21.01.29v84.93ZM550.35,295.45l.16-21.13-21.09.02.03,20.76,20.9.35ZM593.37,295.18l-.13-20.8-21.65.03-.07,17.34c0,1.5,2.11,3.77,3.64,3.75l18.21-.31Z"/>
    <path d="M827.42,508.33l.3,21.05,20.69.04.28,21.05h63.65s.1-42.02.1-42.02l-20.92-.18-.39,21.08-42.63.15-.02-21.19,42.83.03.04-42.65-42.68-.38-.33-20.73-20.86-.49-.17-21.51-20.92.17-.14,63.6-21.56.19-.28-41.98-20.88-.44-.2-21.24-20.95-.46.03-20.83,84.73-.07.43,21.13,20.76-.12.32-20.96,20.83.05.14,42.36,17.07.62c1.44.05,4.67-1.5,4.67-3.08l-.05-60.82-21.72-.66-.06-42.52h21.84s.15,21.74.15,21.74l41.96.13.08,41.87,42.62.38c.26,7.52.27,13.84-.22,20.9l-63.48.1-.05,63.8,41.93.19.43,19.28c.02,1.11,2.71,2.42,3.66,2.43l17.89.2.07,62.59-21.82.66.26,21.22,21.48.62-.05,20.53-21.63.64-.04,20.71-20.99.16-.05,21.48,20.88.08.21-21.82,21.69.3v42.61s-42.47.11-42.47.11l-.45-20.97-20.92-.12-.24,42.03-20.85.2-.12,20.89,21.11.37-.1,21.44h-20.79s-.29-21.62-.29-21.62l-21.46-.25-.44-20.88-41.93-.06-.15-42.06-17-.04c-.82,0-2.74-.36-3.38-.81-.81-.56-1.46-2.85-1.42-3.92l.56-16.95,42.28-.22-.07-21-105.87-.05-.08-42.78-21.48-.23-.43-20.89-41.92.07-.02,84.93h-42.9s.01-20.93.01-20.93l-21.08-.13c0-2.26.09-5.94.78-7.42,8.65-9.81,15.1-21.46,20.01-33.84l.55,19.97,17.95.31c1.56.03,3.68-2.19,3.67-3.85l-.22-38.81-17.27-.49-.36-20.71,17.68-.59-.04-63.51-21.61-.06-.16,46.32c-6.42-18.27-16.53-32.94-31.51-46.13l31.57-.27.23-20.95,42.69-.02.1,20.94,20.7.1.13-21.05-20.93-.06v-21.74s21.01-.07,21.01-.07l.15-41.93,20.93-.25.22-20.75,21.35-.63.43-21.37-43-.15v-105.78s20.96-.14,20.96-.14l.4,20.99,21.35-.16.21-20.76,20.98-.22.12-42.62,20.92-.33.11-20.94-42.01-.05-.48-21.05-21.32.15-.27,20.94-20.91-.19-.08-41.85,20.88-.33.46-21.59,85.01.04.72,17.08c.09,2.19-1.72,4.7-3.94,4.7l-39.15.02.11,20.84,20.91.28.06,20.9,21.66.2.11,84.66-21.43.3-.6-21.03-20.84-.07.04,42.12,39.12-.03c1.75,0,3.85,1.98,3.84,3.76l-.3,39.15-42.57-.04-.22-42.16-20.86.13-.29,20.77-21.52.44.18,20.76,21.41.28.08,20.82,41.96.18-.14,21.62-20.59.17-.33,20.91-42.68.12.07,127.82,21.56.2.36,20.82,20.56.1.6-21.07,20.82.1-.04,42.07-41.96.07-.21,20.93,20.89.23.55,21.6,105.82.07.03,84.79,21.61.1.21-20.66,21.1-.73-.34-21.28-20.8-.2.05-20.93,41.98-.15.06-20.97h-63.88s-.17-21.73-.17-21.73l-41.7-.11-.56-20.93-20.78-.06-.18,20.91-21.51.03-.24-21.03,21.12.03.14-41.96,21.73-.2ZM720.52,529.35l.06-21.07-42.22.15.44,21.02,41.72-.1ZM954.64,571.28l-.09-41.84-21.01.13.14,42.01,20.96-.3Z"/>
    <path d="M593.37,720.53l-.06,63.75-21.59.13-.22-20.79-20.84-.4-.31-20.84-20.9.03-.14,41.84-20.95.5-.09,63.69h-21.77s-.02-21.06-.02-21.06l-20.93.1-.11,20.97-21.05-.16-.1-41.82-17.08-.14c-1.55-.01-4.52-1.28-4.54-2.66l-.29-19.1-20.78.22-.29,21.31-20.91.4v20.87s-20.9-.12-20.9-.12l-.29-20.92-18.82-.05c-1.11,0-2.99-2.54-2.97-3.79l.32-17.85,21.63-.19-.05,21.13,21.13-.05-.33-20.98-20.89-.08.21-21.01,62.98-.05.32-20.96,21.54.03.13,41.95,20.69.03.58-20.86,20.72-.29.23-63.59,21.58-.55.28-63.78,20.83,3.85.2,17.78,20.83.41.33,20.69,20.86.54.1,41.72,21.72.12Z"/>
    <path d="M635.51,635.51l-.02,18.19c0,1.64,2.04,3.73,3.83,3.71l39.05-.3.03-21.59h21.06s-.09,21.68-.09,21.68l-20.92.2.05,20.81,20.97.32v20.95s-42.14,0-42.14,0l.02,39.13c0,1.71-2.01,3.93-3.61,3.89l-18.12-.36-.14-42.65,21.64-.09.24-20.66-21.68-.19-.19,20.96h-21.03s0-63.98,0-63.98h21.06Z"/>
    <path d="M252.53,827.37v149.02H103.53v-149.02h149ZM231.44,848.45h-106.12v106.14h106.12v-106.14Z"/>
    <path d="M252.52,103.52v149H103.53V103.52h148.99ZM125.32,125.3v106.17h106.12v-106.17h-106.12Z"/>
    <path d="M976.38,103.51v149.02s-149,0-149,0V103.52s149,0,149,0ZM954.59,125.32h-106.13s0,106.16,0,106.16h106.13s0-106.16,0-106.16Z"/>
    <path d="M125.19,380.18l-21.56.12.16-20.85,21.33-.27v-21.42s-21.54-.44-21.54-.44l-.1-59.95c0-1.74,2.07-4.02,3.68-3.97l18.06.66.13,63.44,20.94.19v21.49s-20.93.23-20.93.23l-.18,20.77Z"/>
    <path d="M954.76,316.53l-.28-21.02-20.84-.3.15-21.49,38.79-.22c1.15,0,3.81,1.73,3.81,2.9l-.08,39.87-21.55.26Z"/>
    <path d="M590.38,188.61c1.23.01,3.02,2.38,3.02,3.68l.04,13.16c0,1.2-.97,4.86-2.37,4.86h-40.45s.04-42.77.04-42.77l20.79-.05.28,20.91,18.65.22Z"/>
    <path d="M295.4,146.16c-7.81.29-13.96.29-21.65-.09l-.25-38.75c0-1.14,1.72-3.85,2.99-3.83l18.81.21.1,42.46Z"/>
    <path d="M295.29,976.21l-18.12.29c-2.06.03-3.83-2.73-3.76-4.81l.53-16.77,17.82-.49c1.46-.04,3.72,2.31,3.7,3.72l-.18,18.06Z"/>
    <path d="M972.34,359.4h-14.19c-1.56-.02-3.62-2.01-3.61-3.82l.06-14.91c0-1.04,2.03-3.19,3.04-3.18l18.5.2.38,18.01c.04,1.75-2.22,3.7-4.17,3.7Z"/>
    <polygon points="125.23 763.43 103.61 763.31 103.79 742.35 125.26 742.48 125.23 763.43"/>
    <polygon points="976.3 720.59 954.65 720.42 954.85 699.48 976.29 699.59 976.3 720.59"/>
    <polygon points="720.6 210.29 699.57 210.27 699.56 188.66 720.43 188.63 720.6 210.29"/>
    <polygon points="763.53 486.17 742.44 486.59 742.32 465.58 763.28 465.53 763.53 486.17"/>
    <polygon points="954.63 465.43 933.61 465.34 933.79 444.4 954.53 444.42 954.63 465.43"/>
    <polygon points="571.58 827.34 529.6 827.35 529.82 805.57 571.41 805.64 571.58 827.34"/>
    <polygon points="635.55 784.5 614.56 784.41 614.74 763.49 635.48 763.48 635.55 784.5"/>
    <polygon points="848.44 848.35 827.38 848.48 827.53 827.35 848.44 827.43 848.44 848.35"/>
    <rect x="146.39" y="869.55" width="63.96" height="63.96"/>
    <rect x="146.4" y="146.37" width="63.95" height="63.99"/>
    <rect x="869.56" y="146.38" width="63.97" height="63.98"/>
  </g>
  <path d="M554.9,557.72l-3.96-3.96-3.96,3.96,3.96,3.96,3.96-3.96ZM529.16,543.54l3.85,3.85,3.96-3.96-3.96-3.96-3.85,3.85-3.85-3.85-3.96,3.96,3.96,3.96,3.85-3.85ZM598.77,586.97c.52.45,4.68-3.61,5.17-4.18,7.62-8.75,3.97-21.54,3.19-32.25-.56-7.62-1.23-15.24-1.56-22.87-.01-.3-.05-1.36-.43-1.45h0c-.19-.05-.4.18-.49.28-3.4,3.86-4,5.68-4,5.68-2.12,2.38-.48,7.04-.1,10.63.94,9.04,3.02,18.05,3.71,27.11.39,5.13.26,9.45-2.77,13.73-.82,1.17-1.89,2.17-2.73,3.32h0ZM602.96,512.41c-2.32,1.08-4.41,2.55-6.75,3.6-4.98,2.23-11.62,3.87-16.97,2.51-2.98-.76-7.36-6.04-5.42-9.04,1.6-2.48,6.87-3.04,9.54-2.79,1.95.18,3.62.97,5.17,2.1.64.47.83,1.65,2.1.54.19-.17,1.8-2.22,1.83-2.36.21-.78-2.14-3.6-2.82-4.14-7.25-5.86-16.55-1.01-19.61,6.83-1.65,4.24-1.93,10.06,2.23,12.97.63.44,1.29.5,1.74,1.01-3.22.74-6.91,1.15-10.24.89-.96-.07-2.74-.51-3.41-1.21-.39-.41-.96-1.31-.78-1.88.15-.46,2.12-2.64,2.6-3.36,1.78-2.65,3.59-5.95,1.98-9.12-1.42-2.8-4.4-3.99-7.41-4.04-7.69-.13-14.78,5.59-19.72,10.9-.95,1.03-1.73,2.34-2.85,3.2.61-3.07-.07-6.1-.22-9.14-.2-3.96-.22-7.94-.43-11.9-.29-5.64-1.18-11.57-1.08-17.18.03-1.83,1.08-2.93,1.52-4.39.09-.31-.02-.39-.32-.32-2.25,2.85-5.67,5.76-6.05,9.57-.34,3.46.4,7.56.66,11.01.28,3.74.49,7.48.91,11.2.48,4.2,1.79,9.43,1.95,13.46.01.36.23,1.33-.28,2.25-.44.79-1.18,1.21-1.68,1.42-.84-.04-2.67-.26-4.31-1.57-.34-.27-1.84-1.59-2.47-3.71-.33-1.12.02-3.75-1.39-3.01-.12.06-1.65,1.89-1.82,2.15-1.05,1.56-2.26,4.34-2.13,6.21.09,1.32,1.34,3.22,1.23,4.09-.27,2.03-6.24,7.59-8.01,9-5.56,4.43-12.2,7.53-18.97,9.59-7.84,2.38-16.96,4.47-25.03,1.25-2.05-.81-6.26-3.58-6.67-5.88h0c-.16-.92.12-2.22,0-3.19-.33-.02-.39.78-.41,1.02-.88,8.19,11.76,12.34,18.08,13.34,12.09,1.91,23.66-.85,33.28-8.43,4.58-3.61,8.51-8.21,10.25-13.86.23-.19,2.58,1.35,3.15,1.58,8.49,3.42,19.02-.9,26.82-4.47.5-.29,2.9-1.96,3.16-1.96.59,0,.74,1.49,1.01,2.07,3.35,7,14.81,3.85,20.56,1.9,8.08-2.74,15.31-7.65,23.62-9.51.72-1.67,1.9-3.32,2.65-4.94.55-1.2,1.48-3.03,1.24-4.26h0ZM558.51,518.35c-6.7,5.38-12.2,6.75-12.2,6.75-6.38,1.6-12.09,1.2-16.08.51,3.87-3.93,8.49-7.72,13.43-10.24,4.2-2.15,10.09-4.41,14.22-1.12h0c2.85,2.29.96,3.84.64,4.1h0ZM575.76,572.45c.24,0,.71,2.39.88,2.85,2.93,7.6,15.21,5.29,18.63-.73,1.97-3.46,1.55-8.48,1.28-12.36-.56-8.14-1.84-16.28-2.2-24.44-.06-1.41.27-2.77,0-4.07h0c-.34.23-.81.57-1.36,1.03,0,0-1.97,1.63-3.28,3.5-1.43,2.03-.62,5.18.04,10.52.62,4.96,1.42,10.05,2.2,14.97.39,2.42,1.11,4.83,1.27,7.26-.79.44-1.85.92-3.15,1.25-2.04.52-3.8.44-4.95.3-.37.01-2.79.07-4.06-1.64-.19-.26-.39-.6-.54-1.06,2.01-.44,4.02-.89,6.03-1.33,1.06-2.06,2.11-4.12,3.17-6.18-3.95.53-7.74-1.12-11.27-2.71-3.36-1.52-6.7-3.63-10.33-4.41-2.55-.55-6.29-.68-7.98,1.64-.53.72-2.71,5.85-2.33,6.37,5.87-1.36,12.06,1.04,17.6,2.86.17.24-2,1.14-2.31,1.32-6.05,3.36-7.23,3.92-8.27,4.28-1.14.38-2.81.83-4.95,1.02-.67.03-1.8,0-2.86-.66-1.35-.83-2.19-2.19-2.38-3.12-.15-.72-.71-3.17-1.42-3.16-.08,0-.16.03-.26.11-.93,2.83-4.14,6.39-7.37,6.16-5.95-.42-4.67-9.37-4.96-13.31-.53-7.29-6.06-9.21-12.36-6.47-5.25,2.29-12.46,9.76-16.18,14.14-1.69,2-3.25,4.13-4.7,6.3.17.14,1.1-.43,1.3-.56,4.68-3.19,8.32-7.74,13.65-10.56,2.78-1.48,8.52-3.58,11.35-1.64,6.33,4.32,1.36,14.48,7.38,18.59,1.8,1.23,6.32,1.26,7.86-.37.28-.29.86-1.27,1.15-1.59.26-.29,1.43-1.65,1.66-1.65.29.42.33.95.59,1.39,3.1,5.32,8.11,4.41,12.93,2.44l10.48-6.24h0ZM571.44,586.32l3.96-3.96-3.96-3.96-3.96,3.96,3.96,3.96Z"/>
</svg>