<?xml version="1.0" encoding="UTF-8"?>
<svg id="Layer_1" xmlns="http://www.w3.org/2000/svg" xmlns:xlink="http://www.w3.org/1999/xlink" version="1.1" viewBox="0 0 511.92 267.92">
  <!-- Generator: Adobe Illustrator 30.1.0, SVG Export Plug-In . SVG Version: 2.1.1 Build 136)  -->
  <defs>
    <style>
      .st0 {
        fill: url(#linear-gradient);
      }
    </style>
    <linearGradient id="linear-gradient" x1="54.33" y1="136.04" x2="457.59" y2="136.04" gradientTransform="translate(0 270) scale(1 -1)" gradientUnits="userSpaceOnUse">
      <stop offset="0" stop-color="#e1bf7d"/>
      <stop offset=".6" stop-color="#b17e35"/>
      <stop offset="1" stop-color="#e1bf7d"/>
    </linearGradient>
  </defs>
  <path class="st0" d="M151.14,117.43l-8.08-8.08-8.08,8.08,8.08,8.08,8.08-8.08ZM98.67,88.52l7.85,7.85,8.08-8.08-8.08-8.08-7.85,7.85-7.85-7.85-8.08,8.08,8.08,8.08,7.85-7.85ZM240.58,177.07c1.05.92,9.54-7.36,10.55-8.52,15.54-17.84,8.1-43.92,6.5-65.75-1.14-15.54-2.5-31.07-3.18-46.63-.03-.61-.11-2.77-.87-2.95h0c-.39-.1-.82.36-1,.57-6.94,7.86-8.15,11.58-8.15,11.58-4.32,4.85-.97,14.36-.21,21.67,1.92,18.43,6.16,36.8,7.57,55.26.8,10.45.53,19.26-5.64,28-1.68,2.39-3.86,4.43-5.57,6.77ZM457.52,128.17c-4.73,2.2-8.99,5.2-13.76,7.33-10.15,4.54-23.69,7.89-34.59,5.11-6.07-1.54-15-12.31-11.04-18.43,3.26-5.05,14-6.19,19.44-5.68,3.97.37,7.39,1.98,10.54,4.28,1.31.95,1.69,3.37,4.29,1.1.39-.34,3.66-4.52,3.74-4.81.42-1.59-4.37-7.34-5.75-8.45-14.78-11.94-33.73-2.06-39.97,13.92-3.37,8.64-3.94,20.51,4.54,26.45,1.28.89,2.63,1.01,3.55,2.05-6.56,1.5-14.09,2.35-20.88,1.82-1.96-.15-5.58-1.04-6.95-2.46-.8-.83-1.96-2.68-1.6-3.84.3-.94,4.33-5.39,5.31-6.85,3.62-5.4,7.32-12.12,4.03-18.59-2.9-5.7-8.97-8.13-15.1-8.23-15.68-.26-30.13,11.4-40.2,22.22-1.94,2.09-3.52,4.77-5.82,6.52,1.24-6.25-.14-12.43-.45-18.63-.4-8.08-.45-16.18-.88-24.25-.6-11.5-2.41-23.59-2.21-35.03.07-3.73,2.2-5.98,3.09-8.94.19-.63-.05-.8-.66-.66-4.59,5.81-11.56,11.75-12.34,19.52-.7,7.05.81,15.41,1.34,22.44.57,7.62.99,15.25,1.85,22.83.97,8.57,3.64,19.22,3.98,27.44.03.74.46,2.71-.57,4.58-.89,1.62-2.41,2.46-3.42,2.89-1.72-.08-5.45-.52-8.78-3.21-.69-.56-3.75-3.25-5.03-7.56-.67-2.28.04-7.65-2.84-6.14-.25.13-3.37,3.86-3.72,4.38-2.14,3.18-4.61,8.84-4.35,12.67.18,2.7,2.73,6.56,2.5,8.33-.55,4.14-12.72,15.48-16.32,18.35-11.34,9.04-24.87,15.35-38.68,19.55-15.98,4.86-34.58,9.12-51.03,2.55-4.17-1.66-12.77-7.29-13.6-11.98h-.02c-.33-1.87.24-4.52,0-6.5-.67-.04-.79,1.6-.84,2.07-1.79,16.69,23.97,25.16,36.86,27.2,24.64,3.89,48.24-1.74,67.84-17.18,9.34-7.35,17.35-16.73,20.89-28.25.47-.39,5.26,2.76,6.42,3.23,17.3,6.97,38.77-1.83,54.68-9.12,1.02-.6,5.92-4,6.45-4,1.2-.02,1.5,3.04,2.06,4.22,6.83,14.28,30.2,7.85,41.91,3.88,16.47-5.58,31.22-15.59,48.15-19.38,1.46-3.4,3.88-6.76,5.41-10.07,1.13-2.44,3.01-6.17,2.53-8.69h0ZM366.89,140.28c-13.66,10.96-24.88,13.77-24.88,13.77-13.01,3.26-24.65,2.45-32.78,1.03,7.89-8.01,17.31-15.73,27.37-20.87,8.56-4.38,20.58-9,28.99-2.28h0c5.81,4.66,1.95,7.83,1.3,8.35h0ZM193.67,147.46c.48-.01,1.44,4.88,1.8,5.82,5.97,15.49,31,10.79,37.99-1.49,4.01-7.06,3.15-17.28,2.61-25.2-1.14-16.59-3.76-33.19-4.48-49.82-.12-2.88.56-5.64,0-8.29h0c-.69.46-1.66,1.17-2.77,2.09,0,0-4.01,3.33-6.69,7.14-2.91,4.14-1.26,10.56.09,21.44,1.26,10.12,2.89,20.48,4.49,30.52.79,4.94,2.26,9.84,2.59,14.8-1.61.89-3.77,1.87-6.43,2.55-4.16,1.06-7.75.9-10.09.61-.76.03-5.68.15-8.28-3.34-.39-.53-.8-1.23-1.1-2.16,4.1-.9,8.2-1.81,12.3-2.72,2.16-4.2,4.31-8.4,6.47-12.6-8.06,1.09-15.78-2.28-22.97-5.53-6.85-3.09-13.65-7.4-21.06-9-5.2-1.13-12.83-1.38-16.27,3.34-1.08,1.47-5.52,11.93-4.76,12.98,11.97-2.77,24.59,2.13,35.89,5.84.35.48-4.07,2.33-4.71,2.69-12.34,6.84-14.73,8-16.86,8.72-2.33.78-5.72,1.7-10.09,2.07-1.37.07-3.66-.02-5.84-1.35-2.76-1.69-4.46-4.46-4.86-6.36-.31-1.47-1.44-6.47-2.89-6.45-.16,0-.33.06-.52.22-1.89,5.76-8.43,13.03-15.03,12.56-12.12-.86-9.52-19.11-10.11-27.14-1.09-14.87-12.35-18.77-25.2-13.18-10.7,4.66-25.41,19.89-32.98,28.82-3.45,4.07-6.62,8.42-9.58,12.85.34.28,2.25-.87,2.66-1.15,9.54-6.5,16.96-15.77,27.83-21.53,5.67-3.01,17.36-7.29,23.13-3.35,12.9,8.8,2.78,29.53,15.05,37.9,3.67,2.51,12.88,2.57,16.03-.76.58-.6,1.76-2.58,2.34-3.25.53-.6,2.91-3.36,3.38-3.37.59.85.68,1.93,1.21,2.84,6.31,10.84,16.53,9,26.35,4.97l21.36-12.73h0ZM184.85,175.74l8.08-8.08-8.08-8.08-8.08,8.08,8.08,8.08Z"/>
</svg>